<svg id="svg" version="1.1" xmlns="http://www.w3.org/2000/svg" viewBox="0 0 1024 1024" style="display: block;"><path d="M0 0 C337.92 0 675.84 0 1024 0 C1024 337.92 1024 675.84 1024 1024 C686.08 1024 348.16 1024 0 1024 C0 686.08 0 348.16 0 0 Z " transform="translate(0,0)" style="fill: #FEFEFE;"/><path d="M0 0 C8.89935237 8.39561544 14.03729782 20.03085767 14.62109375 32.171875 C15.07583314 52.96458089 8.16772318 73.01972847 -6.4296875 88.28515625 C-21.02804979 102.20158812 -36.10237711 103.17793695 -55.62890625 102.89453125 C-64.96178057 102.50735156 -73.07175192 100.4097854 -79.6875 93.4375 C-80.43 93.045625 -81.1725 92.65375 -81.9375 92.25 C-89.96175792 86.96128456 -94.90845839 78.76362443 -96.9375 69.5 C-99.7624621 50.73603156 -96.62176178 32.55006792 -85.50683594 16.76025391 C-79.89302627 9.2194734 -74.24163289 3.58659123 -65.6875 -0.5625 C-64.81738281 -1.02140625 -63.94726562 -1.4803125 -63.05078125 -1.953125 C-45.22875833 -11.22377369 -16.75446018 -12.80572177 0 0 Z M-44.6875 0.4375 C-46.67844188 0.69860713 -48.67048503 0.95500927 -50.66796875 1.16015625 C-53.22985533 1.51198207 -55.33326358 2.38428897 -57.6875 3.4375 C-58.595 3.685 -59.5025 3.9325 -60.4375 4.1875 C-68.35522128 7.23277742 -74.84377403 12.47380532 -79.6875 19.4375 C-80.38632295 21.09094147 -81.05242661 22.7585408 -81.6875 24.4375 C-82.50865971 26.02718098 -83.34229534 27.61047179 -84.1875 29.1875 C-90.65573928 42.21938032 -90.36457313 57.1287932 -85.953125 70.80078125 C-84.5792043 73.66311605 -83.00145026 75.29616296 -80.6875 77.4375 C-80.275 78.22125 -79.8625 79.005 -79.4375 79.8125 C-73.21675502 89.14361746 -61.11938951 92.12527707 -50.6875 94.4375 C-37.43269462 95.11456275 -24.73765283 94.84418955 -13.6875 86.4375 C-13.01678682 85.10619761 -12.34987254 83.77297177 -11.6875 82.4375 C-10.553125 81.880625 -9.41875 81.32375 -8.25 80.75 C-5.18350056 79.09978071 -4.12335814 77.87998122 -3.0625 74.5625 C-2.85625 73.78648437 -2.65 73.01046875 -2.4375 72.2109375 C-1.51168246 68.7873414 -0.29001254 65.51433797 0.9375 62.1875 C5.55669143 49.58970518 6.62596979 34.68621621 1.5703125 22.01171875 C-3.23049246 12.18646885 -9.25367604 4.70843055 -19.8125 1.0625 C-25.66714723 -0.72340035 -31.31235177 -1.70769925 -37.4375 -1.75 C-38.38109375 -1.76417969 -39.3246875 -1.77835937 -40.296875 -1.79296875 C-42.873685 -1.80030793 -42.873685 -1.80030793 -44.6875 0.4375 Z " transform="translate(546.6875,376.5625)" style="fill: #070707;"/><path d="M0 0 C5.96293262 4.17159895 9.91481467 10.19897237 11.29101562 17.37524414 C11.55939614 19.48286375 11.77579142 21.58661299 11.9609375 23.703125 C12.19255468 26.27613961 12.49617363 28.77151463 12.8984375 31.328125 C13.8884375 31.823125 13.8884375 31.823125 14.8984375 32.328125 C14.32259318 34.71376577 13.67616155 36.99495284 12.8984375 39.328125 C12.83565347 40.91864258 12.83193118 42.51184351 12.86425781 44.10327148 C12.8804718 45.07115097 12.89668579 46.03903046 12.91339111 47.03623962 C12.93423767 48.08002274 12.95508423 49.12380585 12.9765625 50.19921875 C13.00381755 52.40428221 13.02982064 54.60936144 13.0546875 56.81445312 C13.09797529 60.29543077 13.1486439 63.77559443 13.22070312 67.25610352 C13.28722305 70.61227137 13.3220616 73.96754818 13.3515625 77.32421875 C13.38050598 78.36597763 13.40944946 79.40773651 13.43927002 80.48106384 C13.46591811 87.65821959 13.46591811 87.65821959 10.60839844 91.03149414 C7.01291586 92.75181918 4.71138501 92.22528912 0.8984375 91.328125 C0.84427562 89.72433159 0.80557112 88.12001094 0.7734375 86.515625 C0.75023437 85.62230469 0.72703125 84.72898437 0.703125 83.80859375 C0.8984375 81.328125 0.8984375 81.328125 2.8984375 78.328125 C3.35238302 76.04899562 3.35238302 76.04899562 3.5234375 73.640625 C3.59820312 72.83238281 3.67296875 72.02414062 3.75 71.19140625 C3.79898438 70.57652344 3.84796875 69.96164062 3.8984375 69.328125 C1.27293454 70.30596039 -1.35197755 71.2853313 -3.9765625 72.265625 C-4.72292969 72.54341797 -5.46929687 72.82121094 -6.23828125 73.10742188 C-10.22880765 74.57911694 -10.22880765 74.57911694 -14.1015625 76.328125 C-23.31859649 76.99845474 -29.32885748 76.47607937 -37.0390625 71.390625 C-40.26963787 66.59371005 -39.8968986 61.93371499 -39.1015625 56.328125 C-34.38539555 45.66548669 -21.57321546 38.52860404 -11.1015625 34.328125 C-6.52196788 32.89891531 -1.84337632 32.02953352 2.8984375 31.328125 C3.54835377 21.07166513 3.54835377 21.07166513 -1.1015625 12.328125 C-7.09938845 7.7882686 -11.60345642 6.14717929 -19.1015625 6.140625 C-19.83890625 6.12837891 -20.57625 6.11613281 -21.3359375 6.10351562 C-23.25926308 6.09825105 -25.18210513 6.20609053 -27.1015625 6.328125 C-27.7615625 6.988125 -28.4215625 7.648125 -29.1015625 8.328125 C-32.2265625 8.453125 -32.2265625 8.453125 -35.1015625 8.328125 C-34.3515625 2.578125 -34.3515625 2.578125 -32.1015625 0.328125 C-22.21760912 -3.66206359 -9.68819512 -5.11421453 0 0 Z " transform="translate(467.1015625,596.671875)" style="fill: #080808;"/><path d="M0 0 C2.96175123 0.61277612 4.38058783 1.25372522 7 3 C6.67 6.96 6.34 10.92 6 15 C7.84464844 14.15115234 7.84464844 14.15115234 9.7265625 13.28515625 C11.35920603 12.54389856 12.99202801 11.80303381 14.625 11.0625 C15.83736328 10.50272461 15.83736328 10.50272461 17.07421875 9.93164062 C21.39212965 7.98331498 25.23534794 6.47092491 30 6 C30.75023437 5.92136719 31.50046875 5.84273437 32.2734375 5.76171875 C37.9749627 5.56036377 42.36816934 6.5496521 47 10 C48.67438382 11.9337954 49.76463848 13.73517056 51 16 C55.03350194 15.40919773 57.92294774 14.10143883 61.4375 12.0625 C65.25212473 9.92855105 68.74838521 8.1091169 73 7 C73.69738281 6.81695313 74.39476562 6.63390625 75.11328125 6.4453125 C83.11814603 4.48109358 90.52878433 4.03379909 98 8 C103.19426953 12.46490341 106.52576641 17.22626142 107.2175293 24.18969727 C107.34269594 26.75574256 107.37965797 29.30589801 107.375 31.875 C107.37338867 32.80175537 107.37177734 33.72851074 107.37011719 34.68334961 C107.16116841 46.58216332 103.77570638 56.9971417 99.87890625 68.16796875 C98.68873002 72.00298104 98.00908893 75.85727702 97.39453125 79.8203125 C97 82 97 82 96 84 C92.37 84 88.74 84 85 84 C84.71428571 76.57142857 84.71428571 76.57142857 87 73 C87.66 73 88.32 73 89 73 C89.69088547 70.9273436 90.38139568 68.85456157 91.0703125 66.78125 C91.72561531 64.82084831 92.38771209 62.86271119 93.0546875 60.90625 C93.40789062 59.8646875 93.76109375 58.823125 94.125 57.75 C94.45757813 56.77546875 94.79015625 55.8009375 95.1328125 54.796875 C98.51356204 43.8931963 99.42773875 28.06169837 94.2109375 17.68359375 C91.72697827 14.23008914 88.89341534 13.29780511 85 12 C75.54806788 10.79337037 66.78207986 16.45401607 58.64453125 20.69140625 C56.60713241 22.31261435 56.35857473 23.46856941 56 26 C55.34 26 54.68 26 54 26 C53.01052989 36.76519201 52.69352976 47.51013419 52.4375 58.3125 C52.39418595 60.035815 52.35056819 61.7591224 52.30664062 63.48242188 C52.20093287 67.65486869 52.09930969 71.8273962 52 76 C46.359375 79.1015625 46.359375 79.1015625 43.125 78.1875 C42.42375 77.795625 41.7225 77.40375 41 77 C40.03525051 72.07977762 40.10158508 69.54941576 42 65 C44.30229874 55.05179558 44.29307829 45.13355426 44 35 C43.98195313 33.8553125 43.96390625 32.710625 43.9453125 31.53125 C43.66218015 24.93593176 42.45901512 20.0260575 38 15 C33.66388938 12.10925958 30.09060941 12.32674801 25 13 C18.10467386 15.09368749 12.11477374 17.88522626 7 23 C6.67 23.66 6.34 24.32 6 25 C5.34 25 4.68 25 4 25 C4 39.19 4 53.38 4 68 C4.66 68 5.32 68 6 68 C6 69.65 6 71.3 6 73 C5.34 73 4.68 73 4 73 C3.773125 73.639375 3.54625 74.27875 3.3125 74.9375 C2 77 2 77 -0.5 77.8125 C-3 78 -3 78 -5 77 C-4.99333817 76.40309357 -4.98667633 75.80618713 -4.97981262 75.19119263 C-4.91359161 68.99486665 -4.86825473 62.79864069 -4.83520508 56.60205078 C-4.82009147 54.28755615 -4.79960004 51.97309026 -4.77368164 49.65869141 C-4.73741159 46.33749304 -4.72029956 43.01667232 -4.70703125 39.6953125 C-4.69154739 38.65569366 -4.67606354 37.61607483 -4.66011047 36.54495239 C-4.65988388 35.58410736 -4.65965729 34.62326233 -4.65942383 33.63330078 C-4.65276199 32.78502716 -4.64610016 31.93675354 -4.63923645 31.06277466 C-4.75828842 30.38205902 -4.87734039 29.70134338 -5 29 C-5.99 28.34 -6.98 27.68 -8 27 C-8.375 24.5625 -8.375 24.5625 -8 22 C-7.48824219 21.57460938 -6.97648437 21.14921875 -6.44921875 20.7109375 C-4.70134399 19.02049093 -4.70134399 19.02049093 -4.99609375 16.22265625 C-5.21458984 14.65837891 -5.21458984 14.65837891 -5.4375 13.0625 C-6.00205041 8.95806594 -6.27040969 6.55554725 -4 3 C-3.01 3 -2.02 3 -1 3 C-0.67 2.01 -0.34 1.02 0 0 Z " transform="translate(515,596)" style="fill: #080808;"/><path d="M0 0 C1.00949707 0.17354004 2.01899414 0.34708008 3.05908203 0.52587891 C10.23336964 1.85836964 10.23336964 1.85836964 12.5 4.125 C12.73046875 6.21875 12.73046875 6.21875 12.6875 8.625 C12.68105469 9.4190625 12.67460937 10.213125 12.66796875 11.03125 C12.5 13.125 12.5 13.125 11.5 15.125 C8.86917793 15.5236094 7.08648061 15.48169777 4.78515625 14.08203125 C3.62183176 13.21399263 2.47352251 12.32534127 1.34375 11.4140625 C-8.01554711 4.87048613 -23.68589434 4.81328955 -34.54736328 6.4296875 C-42.14309462 7.80594203 -48.99739711 9.53058867 -54.90625 14.765625 C-56.5 16.125 -56.5 16.125 -59.625 17.4375 C-67.82716893 22.25181655 -72.06977959 34.21206743 -74.61328125 42.94921875 C-77.63024047 55.71339268 -75.73846267 67.10924822 -69.18359375 78.390625 C-65.37278262 84.07969916 -60.27499261 87.58651905 -54.5 91.125 C-53.49582031 91.74761719 -52.49164063 92.37023437 -51.45703125 93.01171875 C-37.54679471 101.09354923 -22.27652815 103.10714861 -6.5 100.125 C-5.45028863 96.6824262 -5.37088494 93.51467108 -5.3671875 89.92578125 C-5.36589844 88.71599609 -5.36460937 87.50621094 -5.36328125 86.25976562 C-5.36714844 84.99841797 -5.37101562 83.73707031 -5.375 82.4375 C-5.37113281 81.19548828 -5.36726563 79.95347656 -5.36328125 78.67382812 C-5.37027844 72.07197526 -5.6068731 65.66750898 -6.5 59.125 C-2.21 59.125 2.08 59.125 6.5 59.125 C6.335 60.878125 6.17 62.63125 6 64.4375 C5.16701624 75.32578767 4.77265464 86.47360907 6.25 97.3125 C6.87365469 102.63435339 5.29751213 105.63202597 2.5 110.125 C1.50097656 110.11339844 0.50195312 110.10179687 -0.52734375 110.08984375 C-2.46287109 110.07630859 -2.46287109 110.07630859 -4.4375 110.0625 C-5.72527344 110.05089844 -7.01304687 110.03929687 -8.33984375 110.02734375 C-11.36298403 109.75967451 -11.36298403 109.75967451 -12.5 111.125 C-16.03430291 111.37891333 -19.58266874 111.31023797 -23.125 111.3125 C-24.60419922 111.33086914 -24.60419922 111.33086914 -26.11328125 111.34960938 C-31.6813041 111.36076029 -36.23723002 110.93491201 -41.5 109.125 C-42.29664063 108.93679688 -43.09328125 108.74859375 -43.9140625 108.5546875 C-57.95820834 105.03124455 -72.14067747 94.34340009 -80.0625 82.1875 C-87.30360497 68.64513849 -86.77525617 54.19334676 -82.71484375 39.8125 C-81.17912485 35.15102528 -79.12833473 31.23736047 -76.5 27.125 C-76.16226562 26.40828125 -75.82453125 25.6915625 -75.4765625 24.953125 C-74.5 23.125 -74.5 23.125 -72.5 22.125 C-72.06816406 21.3721875 -71.63632812 20.619375 -71.19140625 19.84375 C-64.5358504 9.14567408 -51.16681608 3.47032361 -39.5 0.125 C-38.54480469 -0.184375 -38.54480469 -0.184375 -37.5703125 -0.5 C-25.43151918 -3.90075144 -12.18935912 -2.09662309 0 0 Z " transform="translate(402.5,564.875)" style="fill: #080808;"/><path d="M0 0 C5.21579941 5.21579941 6.25680938 10.47872747 6.6875 17.6875 C6.73455078 18.36361328 6.78160156 19.03972656 6.83007812 19.73632812 C7.133374 24.733252 7.133374 24.733252 6 27 C0.25026516 28.34770957 -5.92234101 28.12774269 -11.796875 28.0625 C-12.59353577 28.05871338 -13.39019653 28.05492676 -14.21099854 28.05102539 C-16.7240578 28.03894308 -19.23699463 28.02030907 -21.75 28 C-25.07812192 27.9733293 -28.40618614 27.95339563 -31.734375 27.9375 C-32.48966492 27.92920166 -33.24495483 27.92090332 -34.02313232 27.91235352 C-37.81524415 27.89474425 -41.31450057 28.07817149 -45 29 C-45 29.66 -45 30.32 -45 31 C-45.66 31 -46.32 31 -47 31 C-46.7434505 33.71037002 -46.47028951 36.41734615 -46.1875 39.125 C-46.11724609 39.88554688 -46.04699219 40.64609375 -45.97460938 41.4296875 C-45.34404528 47.2813223 -44.27719781 51.91389571 -39.765625 56.046875 C-38.93546875 56.60890625 -38.1053125 57.1709375 -37.25 57.75 C-36.02023437 58.60851562 -36.02023437 58.60851562 -34.765625 59.484375 C-27.57678273 63.42402303 -20.78802631 63.30796654 -12.75 63.25 C-11.11804688 63.26160156 -11.11804688 63.26160156 -9.453125 63.2734375 C-7.89078125 63.26957031 -7.89078125 63.26957031 -6.296875 63.265625 C-4.87906738 63.26224121 -4.87906738 63.26224121 -3.43261719 63.25878906 C-0.74169348 63.16259506 -0.74169348 63.16259506 2 61 C3.32 61 4.64 61 6 61 C6.29201904 65.96432365 6.14707573 69.03701574 3 73 C-10.57707995 77.52569332 -28.22729807 72.94951253 -40.75 67.125 C-47.80581266 63.25008649 -51.47110082 58.61556756 -54.26953125 51.03125 C-57.05002558 39.49294197 -55.19890293 27.92573984 -49.6796875 17.5078125 C-46.29258157 12.01070615 -42.11941144 7.89308855 -37 4 C-36.38382813 3.525625 -35.76765625 3.05125 -35.1328125 2.5625 C-24.69258371 -4.71533584 -11.05354134 -6.71497186 0 0 Z " transform="translate(696,602)" style="fill: #0C0C0C;"/><path d="M0 0 C1.87558594 -0.02513672 1.87558594 -0.02513672 3.7890625 -0.05078125 C9.00016759 0.47714116 12.21832123 2.26341926 16.0625 5.75 C20.74666273 11.79408094 22.02422218 20.84644497 21.375 28.3125 C21.045 28.9725 20.715 29.6325 20.375 30.3125 C15.13896988 31.28870901 10.48082875 31.3023874 5.1875 30.8125 C-1.27278504 30.26238839 -7.58820193 30.3827514 -14.0625 30.6875 C-14.99795654 30.73068359 -15.93341309 30.77386719 -16.8972168 30.81835938 C-21.86252918 31.07826279 -26.71683649 31.51585173 -31.625 32.3125 C-34.11849561 39.79298682 -32.64543645 48.15586886 -29.625 55.3125 C-27.00389441 58.41224226 -24.10184598 60.43827273 -20.625 62.5 C-19.779375 63.00917969 -18.93375 63.51835937 -18.0625 64.04296875 C-12.06389719 67.16724105 -5.67070525 66.49628126 0.9375 66.5 C2.08669922 66.51224609 3.23589844 66.52449219 4.41992188 66.53710938 C6.07024414 66.54000977 6.07024414 66.54000977 7.75390625 66.54296875 C8.7601001 66.54707764 9.76629395 66.55118652 10.80297852 66.55541992 C13.61500032 66.49483748 13.61500032 66.49483748 16.375 64.3125 C17.365 64.3125 18.355 64.3125 19.375 64.3125 C19.98314992 71.48866901 19.98314992 71.48866901 17.359375 75.04296875 C13.64117733 77.87055101 10.81006375 78.07781889 6.3125 77.9375 C5.53463135 77.92348145 4.7567627 77.90946289 3.95532227 77.89501953 C-10.65598798 77.31097392 -24.82404638 73.94009909 -35.4375 63.5625 C-41.06040948 55.20846306 -42.90220158 47.35085631 -41.625 37.3125 C-38.64370023 24.43750631 -33.44375878 14.71089148 -22.6875 6.8125 C-22.11459229 6.39057373 -21.54168457 5.96864746 -20.95141602 5.53393555 C-14.38262761 1.01157381 -7.91899606 0.02459316 0 0 Z " transform="translate(882.625,403.6875)" style="fill: #0A0A0A;"/><path d="M0 0 C1.40765625 -0.04350586 1.40765625 -0.04350586 2.84375 -0.08789062 C10.81895745 -0.15949124 17.12410656 1.81777374 23.9375 5.9375 C31.60891553 13.81625108 34.58774035 20.63777456 34.63500977 31.484375 C34.39470371 43.82961131 29.03199417 53.30604267 20.59765625 62.01953125 C11.63656093 70.34807866 1.90974327 72.45088674 -9.875 73.0625 C-10.87015625 73.13082031 -11.8653125 73.19914062 -12.890625 73.26953125 C-23.60095557 73.81483529 -32.50675028 71.32635492 -40.75 64.3125 C-47.13894695 57.45840488 -49.26299851 51.05426643 -49.0546875 41.7265625 C-47.93587861 29.19016548 -43.95462732 18.61066277 -34.359375 10.22265625 C-23.65361875 2.26067086 -13.07410326 0.1325078 0 0 Z M-14.75 7.3125 C-15.08 7.9725 -15.41 8.6325 -15.75 9.3125 C-17.7890625 9.734375 -17.7890625 9.734375 -20.375 10.0625 C-25.90647359 11.09619906 -29.15411412 12.99377701 -32.75 17.3125 C-38.8486119 26.30993263 -39.41715668 34.5784255 -38.75 45.3125 C-37.68714025 50.79091681 -35.84824124 55.42442498 -31.75 59.3125 C-20.28231997 66.91425224 -11.15599086 67.36594599 2.4140625 65.9921875 C11.0571796 64.04405634 15.56178458 57.19106911 20.3671875 50.2578125 C25.18227315 42.34869592 26.78518354 35.50182557 25.25 26.3125 C22.67574005 18.0838612 17.47326214 11.84645728 10.125 7.4375 C5.29199945 5.54632587 0.86234274 5.15498171 -4.3125 5.125 C-5.42753906 5.11082031 -6.54257813 5.09664063 -7.69140625 5.08203125 C-10.65950172 5.30568085 -12.3006184 5.66997352 -14.75 7.3125 Z " transform="translate(226.75,405.6875)" style="fill: #080808;"/><path d="M0 0 C-0.56606279 4.69023454 -1.18537505 9.34500026 -2 14 C-1.38125 13.71125 -0.7625 13.4225 -0.125 13.125 C3.33019663 11.88112921 6.68968723 11.2587817 10.3046875 10.66015625 C13.17331077 10.04906937 13.17331077 10.04906937 16.32421875 8.4609375 C20.30977676 6.87687938 23.71327833 6.49773771 27.9375 6.5625 C28.64044189 6.57152344 29.34338379 6.58054687 30.06762695 6.58984375 C35.46727368 6.77027051 39.92257592 7.28295431 44 11 C52.39771166 21.53955226 51.04095566 35.6695804 49.74951172 48.48583984 C49.15653725 52.64032709 48.29964799 56.72923264 47.42333984 60.83154297 C46.9479791 63.26646459 46.58531297 65.70371603 46.23828125 68.16015625 C46.11428955 69.02858154 45.99029785 69.89700684 45.86254883 70.79174805 C45.62621838 72.47566219 45.39779931 74.16071145 45.1784668 75.84692383 C44.20509729 82.53981542 44.20509729 82.53981542 41 85 C36.63293092 85.38991688 34.69486103 85.46324069 31 83 C30.4344532 80.03087928 30.45369855 77.9516918 31.984375 75.28515625 C32.40203125 74.67542969 32.8196875 74.06570313 33.25 73.4375 C36.87125447 68.11878249 38.33896842 62.15558762 40 56 C40.176521 55.39937744 40.35304199 54.79875488 40.53491211 54.17993164 C41.57848891 49.28854201 41.27151663 44.16834578 41.3125 39.1875 C41.34150391 38.02412109 41.37050781 36.86074219 41.40039062 35.66210938 C41.45073387 28.85802655 41.15706529 24.48459526 37 19 C31.41794523 13.82638826 26.73653697 13.65309878 19.3671875 13.71875 C11.86953025 14.34500443 6.97181424 17.44326644 2 23 C1.01 23.66 0.02 24.32 -1 25 C-2.00748816 29.71440722 -2.12831098 34.3401671 -2.1328125 39.1484375 C-2.13376923 39.8052652 -2.13472595 40.4620929 -2.13571167 41.13882446 C-2.13638739 42.5186574 -2.13457591 43.89849362 -2.13037109 45.27832031 C-2.1250315 47.36270483 -2.13032797 49.44687221 -2.13671875 51.53125 C-2.13823225 57.16332661 -2.1299474 62.72707525 -1.3984375 68.3203125 C-1 72 -1 72 -2.5 74.5 C-5.72993507 76.43796104 -8.25021637 76.86364423 -12 77 C-12.99 76.34 -13.98 75.68 -15 75 C-14.87625 74.113125 -14.7525 73.22625 -14.625 72.3125 C-14.53532959 71.66144287 -14.44565918 71.01038574 -14.35327148 70.33959961 C-14.10293745 68.68172053 -13.81759534 67.02895544 -13.50805664 65.38110352 C-11.93257375 56.54676099 -11.72356453 47.96204653 -11.79418945 39.02294922 C-11.81263255 36.60764131 -11.81469705 34.19271536 -11.81445312 31.77734375 C-11.81936393 30.21874672 -11.82519034 28.66015225 -11.83203125 27.1015625 C-11.83370049 26.03574448 -11.83370049 26.03574448 -11.83540344 24.94839478 C-11.45703056 17.47738704 -11.45703056 17.47738704 -14 11 C-14.5 8.75 -14.5 8.75 -14 6 C-10.74723395 2.78388484 -4.50619801 -2.25309901 0 0 Z " transform="translate(772,402)" style="fill: #090909;"/><path d="M0 0 C0 4.62 0 9.24 0 14 C1.32 13.34 2.64 12.68 4 12 C6.41318738 11.45430436 8.8283926 11.05989756 11.26953125 10.66015625 C14.16854545 10.0539035 14.16854545 10.0539035 17.3203125 8.45703125 C21.35870988 6.85796307 24.79113473 6.55184627 29.0625 6.625 C29.74376953 6.61339844 30.42503906 6.60179687 31.12695312 6.58984375 C36.6745195 6.6218182 40.65904356 7.93415596 44.828125 11.61328125 C45.29734375 12.17402344 45.7665625 12.73476563 46.25 13.3125 C46.96929688 14.14201172 46.96929688 14.14201172 47.703125 14.98828125 C51.39975011 20.72250394 51.35098256 26.59549541 51.3125 33.1875 C51.30730347 34.63539917 51.30730347 34.63539917 51.30200195 36.11254883 C51.11709489 48.58713513 49.21321715 60.74638389 45.62109375 72.6953125 C45.00014721 74.99945376 44.6780141 77.19111541 44.4375 79.5625 C44 83 44 83 42 85 C38.20122401 85.35173852 35.85639847 85.52701444 32.5625 83.5 C32.046875 83.005 31.53125 82.51 31 82 C31.32662508 78.5159991 32.36779769 76.31564261 34.3125 73.5 C41.39038439 62.66775954 42.18671567 49.56369951 42.375 37 C42.41238281 36.05382812 42.44976563 35.10765625 42.48828125 34.1328125 C42.5716177 27.44737713 41.28041453 23.18361378 37 18 C32.14347723 13.43781194 26.49480416 13.65645313 20.109375 13.71875 C12.77883179 14.38181421 7.854969 17.57385818 3 23 C2.01 23.66 1.02 24.32 0 25 C-2.52466434 34.46114028 -1.11061211 45.9370823 -1.0625 55.6875 C-1.05747418 57.4680977 -1.05291319 59.24869677 -1.04882812 61.02929688 C-1.03791 65.35289909 -1.02070521 69.67643403 -1 74 C-7.7109375 77.03125 -7.7109375 77.03125 -10.3125 76.75 C-11.55579711 76.19742351 -12.78307651 75.60846174 -14 75 C-13.52575471 71.61394192 -13.03936794 68.23465554 -12.47363281 64.86254883 C-11.06577975 56.15855667 -10.68878862 47.70223942 -10.73925781 38.91186523 C-10.7500744 36.67209346 -10.73923987 34.43310858 -10.7265625 32.19335938 C-10.72004162 24.88097393 -11.00830126 18.08922653 -13 11 C-13.5625 8.25 -13.5625 8.25 -13 6 C-9.20479199 2.42803952 -5.32011777 0 0 0 Z " transform="translate(596,402)" style="fill: #080808;"/><path d="M0 0 C-0.33 4.29 -0.66 8.58 -1 13 C7.44265372 11.95515387 7.44265372 11.95515387 15.25 8.875 C22.152652 5.51831731 31.27361739 5.87801006 38.6328125 7.625 C43.91912371 9.87620478 46.57473141 13.93087639 49 19 C54.16068085 34.48204256 49.72182837 54.30596612 45.53955078 69.57519531 C44.78067589 72.98566835 44.57281419 76.38145216 44.42163086 79.86669922 C43.89927849 82.50961467 43.1599066 83.41909226 41 85 C36.63293092 85.38991688 34.69486103 85.46324069 31 83 C30.5625 80.1875 30.5625 80.1875 31 77 C32.27358732 75.28724465 33.61423077 73.62332967 35 72 C39.5530466 63.07602866 41.5127281 52.95215948 42 43 C42.05285156 41.94554687 42.10570312 40.89109375 42.16015625 39.8046875 C42.38143912 31.51139052 41.96685307 24.6695288 36.625 18.0625 C30.34499274 13.12820858 23.70214197 13.26081339 16 14 C9.98844288 15.62593285 6.21222787 18.42672403 2 23 C0.686932 23.70574404 -0.64417409 24.38035629 -2 25 C-2.02470935 30.21443333 -2.04286444 35.42883261 -2.05493164 40.64331055 C-2.059962 42.41740513 -2.06678699 44.19149556 -2.07543945 45.96557617 C-2.08756174 48.51482161 -2.09324126 51.06401226 -2.09765625 53.61328125 C-2.10281754 54.40712723 -2.10797882 55.20097321 -2.11329651 56.01887512 C-2.11362877 59.27656286 -2.03772826 61.88681521 -1 65 C-0.44089457 71.15015974 -0.44089457 71.15015974 -2.5625 74.375 C-5.74873203 76.49915469 -8.19634586 76.8616853 -12 77 C-12.99 76.34 -13.98 75.68 -15 75 C-14.54158936 72.16738282 -14.07474033 69.34891532 -13.47363281 66.54272461 C-11.58972415 57.21242837 -11.69682001 47.90091957 -11.73925781 38.42504883 C-11.75006858 35.544224 -11.73926512 32.66401015 -11.7265625 29.78320312 C-11.72788265 27.9401028 -11.73044204 26.09700285 -11.734375 24.25390625 C-11.73032654 23.3986586 -11.72627808 22.54341095 -11.72210693 21.6622467 C-11.75653478 17.28383294 -12.06930244 14.01813249 -14 10 C-14 8 -14 8 -13 6 C-4.40625 -2.203125 -4.40625 -2.203125 0 0 Z " transform="translate(337,402)" style="fill: #080808;"/><path d="M0 0 C3.42346911 0.87781259 4.50751867 2.76576841 6.4375 5.625 C4.5625 10.375 4.5625 10.375 3.4375 12.625 C3.34146789 14.04914345 3.30684263 15.47767026 3.30378723 16.90504456 C3.29952225 17.80351608 3.29525726 18.70198761 3.29086304 19.62768555 C3.29131622 20.61623535 3.29176941 21.60478516 3.29223633 22.62329102 C3.28887772 23.66251205 3.2855191 24.70173309 3.28205872 25.77244568 C3.27252349 29.22461122 3.27060394 32.67672834 3.26953125 36.12890625 C3.2663191 38.52587403 3.26295506 40.9228416 3.25944519 43.31980896 C3.25344654 48.35456801 3.25160591 53.38930989 3.25219727 58.42407227 C3.25229862 64.86445643 3.23867729 71.30472969 3.22142506 77.74508762 C3.21028223 82.70117189 3.20827881 87.65722961 3.20880699 92.61332512 C3.20762913 94.9866874 3.20321826 97.36005041 3.19547462 99.73340034 C3.18563429 103.06266034 3.18856945 106.39168312 3.19458008 109.72094727 C3.18615082 111.18251755 3.18615082 111.18251755 3.17755127 112.6736145 C3.20805344 119.35080654 4.17943973 125.35916266 6.06545734 131.75428104 C6.4375 133.625 6.4375 133.625 5.4375 135.625 C1.06657095 137.22207023 -2.07296798 138.03599578 -6.5625 136.625 C-7.2225 136.295 -7.8825 135.965 -8.5625 135.625 C-8.48940613 134.84899445 -8.41631226 134.07298889 -8.34100342 133.27346802 C-7.38476875 121.47808792 -7.50475616 109.72095605 -7.60959625 97.89434433 C-7.65208724 92.80746638 -7.67520276 87.72055358 -7.69962692 82.63356209 C-7.74519788 73.19272323 -7.79835847 63.75208477 -7.88476562 54.31152344 C-7.94504898 47.71312461 -7.97909351 41.11490671 -7.99794769 34.51623917 C-8.00969449 32.0083342 -8.0305146 29.50045468 -8.06058502 26.99270248 C-8.10148035 23.49855323 -8.11147021 20.00558826 -8.11425781 16.51123047 C-8.13380524 15.47743759 -8.15335266 14.44364471 -8.17349243 13.37852478 C-8.1463541 8.61484196 -8.13113896 6.37733093 -5.18817139 2.4836731 C-2.5625 0.625 -2.5625 0.625 0 0 Z " transform="translate(682.5625,341.375)" style="fill: #070707;"/><path d="M0 0 C-0.00523682 0.60473145 -0.01047363 1.20946289 -0.01586914 1.83251953 C-0.03677358 4.59666894 -0.04970279 7.36080165 -0.0625 10.125 C-0.07506836 11.55199219 -0.07506836 11.55199219 -0.08789062 13.0078125 C-0.10461625 17.82479134 0.18061326 22.2475569 1 27 C2.31275735 52.17471135 -1.08933069 79.14942485 -18.0625 98.875 C-23.25033941 104.50602167 -29.01993509 109.2393338 -35 114 C-35.89847656 114.7528125 -36.79695313 115.505625 -37.72265625 116.28125 C-40 118 -40 118 -42.1875 118.125 C-44.96629271 116.40023211 -45.17259216 114.05504432 -46 111 C-46.33 110.67 -46.66 110.34 -47 110 C-47.04063832 108.33382885 -47.042721 106.66611905 -47 105 C-45.98679687 104.68546875 -44.97359375 104.3709375 -43.9296875 104.046875 C-42.57796765 103.6150756 -41.22641386 103.18275612 -39.875 102.75 C-39.20984375 102.54503906 -38.5446875 102.34007812 -37.859375 102.12890625 C-28.77559053 99.1900348 -22.4000121 93.75334271 -17.875 85.375 C-10.85627233 70.13851202 -9.64647205 54.02420195 -9.73925781 37.51904297 C-9.75005828 35.23768974 -9.73924469 32.95711213 -9.7265625 30.67578125 C-9.72065872 23.40507721 -9.95222825 16.41593716 -11.57128906 9.28808594 C-12.04753665 6.74629073 -12.27553707 4.57708203 -12 2 C-7.75950782 -0.82699479 -4.85416215 -1.37070821 0 0 Z " transform="translate(157,368)" style="fill: #080808;"/><path d="M0 0 C3.21291011 2.45988431 3.84797144 4.97923681 4.4375 8.9375 C4.34442501 15.16022773 0.74331465 22.20168155 -3.55859375 26.58984375 C-5.0625 27.625 -5.0625 27.625 -8 29 C-8.763125 29.4125 -9.52625 29.825 -10.3125 30.25 C-15.09012845 31.58329166 -19.6151236 32.0374419 -24.25390625 30.01953125 C-27.74714012 27.9287375 -31.27287046 25.77809588 -33 22 C-33.59154884 17.99061343 -33.917474 15.54135632 -31.828125 12.03125 C-24.46050544 3.06857878 -11.55925608 -2.16736051 0 0 Z " transform="translate(468,636)" style="fill: #FAFAFA;"/><path d="M0 0 C0.18628067 21.28471558 0.18628067 21.28471558 -0.5 28.4375 C-1.06617391 34.54408998 -1.11340747 40.62190005 -1.125 46.75 C-1.12951172 47.72122803 -1.13402344 48.69245605 -1.13867188 49.69311523 C-1.12707946 61.02721153 -1.12707946 61.02721153 1.625 71.9375 C2.4765625 74.15234375 2.4765625 74.15234375 3 76 C2 78 2 78 -0.0625 79.125 C-3.90213263 80.26872036 -6.99719256 80.20014037 -11 80 C-12 79 -12 79 -12.1328125 77.00390625 C-12.13023437 76.19824219 -12.12765625 75.39257812 -12.125 74.5625 C-12.12757813 73.75941406 -12.13015625 72.95632813 -12.1328125 72.12890625 C-12 70 -12 70 -11 68 C-10.90423258 66.25404559 -10.8720447 64.50443769 -10.87060547 62.75585938 C-10.86745331 61.66132446 -10.86430115 60.56678955 -10.86105347 59.43908691 C-10.8630777 58.25262573 -10.86510193 57.06616455 -10.8671875 55.84375 C-10.86623077 54.63054077 -10.86527405 53.41733154 -10.86428833 52.1673584 C-10.86360683 49.59838815 -10.86545903 47.02941618 -10.86962891 44.46044922 C-10.87497754 40.51656241 -10.86968286 36.57278949 -10.86328125 32.62890625 C-10.86394204 30.13802058 -10.86522321 27.64713498 -10.8671875 25.15625 C-10.86516327 23.96978882 -10.86313904 22.78332764 -10.86105347 21.56091309 C-10.86420563 20.46637817 -10.86735779 19.37184326 -10.87060547 18.24414062 C-10.87140106 17.27754517 -10.87219666 16.31094971 -10.87301636 15.31506348 C-10.84759707 12.97350942 -10.84759707 12.97350942 -12 11 C-12.04022391 8.6670134 -12.04320247 6.33293334 -12 4 C-10.75539217 3.32332002 -9.50403104 2.65905281 -8.25 2 C-7.55390625 1.62875 -6.8578125 1.2575 -6.140625 0.875 C-4 0 -4 0 0 0 Z " transform="translate(293,401)" style="fill: #090909;"/><path d="M0 0 C0.02748063 3.06256338 0.04706558 6.12486989 0.0625 9.1875 C0.07087891 10.03248047 0.07925781 10.87746094 0.08789062 11.74804688 C0.10613754 16.61997219 -0.07778041 21.41761043 -0.484375 26.2734375 C-2.56878622 50.37530819 -2.56878622 50.37530819 2.22265625 73.76171875 C2.47917969 74.50035156 2.73570312 75.23898437 3 76 C2 78 2 78 -0.0625 79.125 C-4.2378246 80.36871371 -8.98302764 81.00848618 -13 79 C-13.14474888 75.88789914 -13.22725273 73.53983745 -12.00737 70.64201355 C-10.8885638 67.70773802 -10.75243202 65.54635033 -10.75708008 62.4152832 C-10.75400345 61.32097488 -10.75092682 60.22666656 -10.74775696 59.09919739 C-10.75494247 57.92822006 -10.76212799 56.75724274 -10.76953125 55.55078125 C-10.76998947 54.34181686 -10.77044769 53.13285248 -10.7709198 51.88725281 C-10.77393721 49.33620215 -10.78180819 46.78515326 -10.79418945 44.23413086 C-10.81247979 40.31682864 -10.81469883 36.39976239 -10.81445312 32.48242188 C-10.81936718 30.00520628 -10.82519501 27.52799229 -10.83203125 25.05078125 C-10.83314407 23.87373123 -10.8342569 22.69668121 -10.83540344 21.48396301 C-10.84178329 20.39911118 -10.84816315 19.31425934 -10.85473633 18.1965332 C-10.85854813 17.23898636 -10.86235992 16.28143951 -10.86628723 15.2948761 C-10.85033754 12.97063314 -10.85033754 12.97063314 -12 11 C-12.04022391 8.6670134 -12.04320247 6.33293334 -12 4 C-10.75539217 3.32332002 -9.50403104 2.65905281 -8.25 2 C-7.55390625 1.62875 -6.8578125 1.2575 -6.140625 0.875 C-4 0 -4 0 0 0 Z " transform="translate(728,401)" style="fill: #080808;"/><path d="M0 0 C2.49497979 1.79216858 3.59261034 3.31578483 4.6640625 6.1953125 C5.0444837 10.60819848 5.14792309 12.46952161 2.6640625 16.1953125 C-9.23394956 19.01382892 -23.19289402 17.28757408 -35.3359375 17.1953125 C-34.5693959 12.35308751 -32.94884622 10.18195707 -29.5859375 6.5703125 C-28.72484375 5.62929688 -27.86375 4.68828125 -26.9765625 3.71875 C-19.30462851 -3.61271355 -9.37296673 -5.33997706 0 0 Z " transform="translate(889.3359375,411.8046875)" style="fill: #FAFAFA;"/><path d="M0 0 C2.7957625 2.36564519 3.8948614 3.8762235 4.23828125 7.546875 C4.24886765 10.04526433 4.17418402 12.50820084 4 15 C0.88945662 16.55527169 -2.45276685 16.38650976 -5.875 16.5625 C-6.65987793 16.6049585 -7.44475586 16.64741699 -8.25341797 16.69116211 C-17.50006406 17.14339426 -26.74530209 17.08694393 -36 17 C-35.17107835 12.98895202 -33.53823508 11.02828181 -30.75 8 C-29.59757813 6.7315625 -29.59757813 6.7315625 -28.421875 5.4375 C-20.10903733 -2.92896888 -10.7627696 -6.00231382 0 0 Z " transform="translate(689,607)" style="fill: #FCFCFC;"/><path d="M0 0 C2.38202314 0.69717751 4.39796142 1.54747857 6.5625 2.75 C6.8125 5.0625 6.8125 5.0625 6.5625 7.75 C4.875 9.625 4.875 9.625 2.5625 10.75 C-0.74206553 10.66738586 -2.18055462 9.94608989 -4.8125 7.9375 C-6.4375 5.75 -6.4375 5.75 -6.375 3.625 C-4.88423656 0.64347312 -3.30162877 -0.33862859 0 0 Z " transform="translate(727.4375,377.25)" style="fill: #0B0B0B;"/><path d="M0 0 C2.3125 1.0625 2.3125 1.0625 4 2 C4.25 4.3125 4.25 4.3125 4 7 C2.3125 8.875 2.3125 8.875 0 10 C-3.44877113 9.91378072 -4.72436215 9.24583917 -7.3125 6.9375 C-7.869375 6.298125 -8.42625 5.65875 -9 5 C-6.99012784 -0.59892958 -5.83360524 -1.52784899 0 0 Z " transform="translate(295,378)" style="fill: #0B0B0B;"/></svg>