<svg id="svg" version="1.1" xmlns="http://www.w3.org/2000/svg" viewBox="0 0 1024 1024" style="display: block;"><path d="M0 0 C337.92 0 675.84 0 1024 0 C1024 337.92 1024 675.84 1024 1024 C686.08 1024 348.16 1024 0 1024 C0 686.08 0 348.16 0 0 Z " transform="translate(0,0)" style="fill: #FEFEFE;"/><path d="M0 0 C3.78822386 1.59533832 5.45348087 4.46443709 7.625 7.79296875 C8.45592244 9.02766756 9.28924496 10.26075469 10.125 11.4921875 C10.53363281 12.09466309 10.94226563 12.69713867 11.36328125 13.31787109 C14.83407707 18.4395327 14.83407707 18.4395327 19.625 22.10546875 C20.05554688 22.83507812 20.48609375 23.5646875 20.9296875 24.31640625 C22.88261335 27.52928425 25.1666576 29.99992735 27.75 32.73046875 C32.48914888 37.80773872 36.9421137 43.0482034 41.29541016 48.46240234 C44.6514239 52.60966134 48.06226219 56.7125399 51.45874023 60.82666016 C54.06927773 63.99161361 56.67653525 67.15786961 59.2421875 70.359375 C63.74525399 75.96094041 68.44538551 81.12549679 73.625 86.10546875 C74.34042969 86.83894531 75.05585938 87.57242188 75.79296875 88.328125 C77.31920528 90.22152094 77.31920528 90.22152094 78.625 90.10546875 C78.61500725 88.47721664 78.61500725 88.47721664 78.60481262 86.81607056 C78.5440899 76.60372094 78.49906997 66.39140779 78.46956348 56.17891884 C78.45388412 50.92812217 78.43260453 45.67747083 78.39868164 40.42675781 C78.36616903 35.36284322 78.34816411 30.29906871 78.34036827 25.23505783 C78.33481016 23.29967416 78.32395705 21.36429845 78.30780983 19.42897415 C78.28614302 16.72542795 78.28302853 14.02246621 78.28442383 11.31884766 C78.273638 10.51252396 78.26285217 9.70620026 78.2517395 8.8754425 C78.26423645 6.64883423 78.26423645 6.64883423 78.625 3.10546875 C81.82880017 0.96960197 82.64439967 0.874147 86.3125 0.98046875 C87.52486328 1.00753906 87.52486328 1.00753906 88.76171875 1.03515625 C89.68404297 1.06996094 89.68404297 1.06996094 90.625 1.10546875 C89.85020967 9.1116355 89.85020967 9.1116355 89.17919922 12.07275391 C87.33691578 20.2245571 86.92783626 28.41310317 86.5 36.73046875 C86.45797455 37.50827698 86.4159491 38.28608521 86.37265015 39.08746338 C85.75172567 50.71848956 85.43647702 62.33310733 85.4375 73.98046875 C85.43659363 74.65732727 85.43568726 75.33418579 85.43475342 76.03155518 C85.43569581 82.19006078 85.54538056 88.03398711 86.625 94.10546875 C86.76238233 96.47795596 86.84420611 98.85420673 86.875 101.23046875 C86.90078125 102.42929687 86.9265625 103.628125 86.953125 104.86328125 C86.604816 108.3049059 85.96452207 109.63050067 83.625 112.10546875 C79.31727005 111.62683209 77.43052373 109.2449834 74.625 106.10546875 C73.69885041 104.86247852 72.78283749 103.61189577 71.875 102.35546875 C68.88852948 98.27114404 65.45025112 94.84090579 61.83984375 91.30859375 C58.57697679 88.06299063 55.60029091 84.61355824 52.625 81.10546875 C51.76777344 80.10257812 50.91054687 79.0996875 50.02734375 78.06640625 C45.11362999 72.30296537 40.28376401 66.48699502 35.57421875 60.5546875 C29.73863754 53.2222037 23.74627572 46.02434691 17.65893555 38.90039062 C14.04815682 34.65857105 10.62521348 30.29219392 7.28125 25.8359375 C6.7346875 25.26488281 6.188125 24.69382812 5.625 24.10546875 C4.635 24.10546875 3.645 24.10546875 2.625 24.10546875 C0.43885524 34.68690483 0.34824669 45.03831677 0.41918945 55.79858398 C0.43748708 58.6659435 0.4396981 61.53297862 0.43945312 64.40039062 C-0.82091641 79.71081336 -0.82091641 79.71081336 2.625 93.10546875 C2.77813272 95.59976525 2.85656517 98.04735368 2.875 100.54296875 C2.895625 101.23712891 2.91625 101.93128906 2.9375 102.64648438 C2.953125 104.6640625 2.953125 104.6640625 2.625 108.10546875 C-0.68871 110.31460875 -1.7196021 110.33028428 -5.5625 110.23046875 C-6.46355469 110.21242188 -7.36460937 110.194375 -8.29296875 110.17578125 C-8.98003906 110.15257812 -9.66710937 110.129375 -10.375 110.10546875 C-10.429348 108.04326395 -10.46794961 105.98064059 -10.5 103.91796875 C-10.52320313 102.76941406 -10.54640625 101.62085938 -10.5703125 100.4375 C-10.37663573 97.13337425 -9.61293851 95.12506778 -8.375 92.10546875 C-8.1717391 89.27571029 -8.1717391 89.27571029 -8.3125 86.41796875 C-8.47181529 81.29909932 -8.47181529 81.29909932 -7.375 79.10546875 C-7.23937481 76.7122498 -7.16111346 74.34463499 -7.12548828 71.94946289 C-7.11065399 71.21271835 -7.0958197 70.47597382 -7.08053589 69.71690369 C-7.04860221 68.1149115 -7.01870118 66.51287782 -6.99057388 64.91081429 C-6.94506247 62.3767034 -6.89205296 59.84285727 -6.8366394 57.3089447 C-6.67963071 50.10371812 -6.5299416 42.8984127 -6.40087891 35.69262695 C-6.32143931 31.28744348 -6.22783623 26.88275399 -6.12505722 22.47805595 C-6.08862254 20.79761894 -6.05759036 19.11705592 -6.03201675 17.43641853 C-5.99580427 15.08739784 -5.94162207 12.73943001 -5.88330078 10.39086914 C-5.87695618 9.69414093 -5.87061157 8.99741272 -5.86407471 8.27957153 C-5.77705596 5.42145277 -5.67174036 3.52349696 -3.9916687 1.15672302 C-2.375 0.10546875 -2.375 0.10546875 0 0 Z " transform="translate(185.375,334.89453125)" style="fill: #040404;"/><path d="M0 0 C9.46894104 7.62024303 10.80878571 16.84791657 12.11328125 28.4765625 C12.28730469 29.415 12.46132813 30.3534375 12.640625 31.3203125 C13.630625 31.8153125 13.630625 31.8153125 14.640625 32.3203125 C14.13458508 34.48905502 13.64078687 36.31998877 12.640625 38.3203125 C12.58073361 39.9036646 12.58539448 41.48967625 12.62231445 43.07373047 C12.65147697 44.55569412 12.65147697 44.55569412 12.68122864 46.06759644 C12.70521225 47.13841461 12.72919586 48.20923279 12.75390625 49.3125 C12.78603606 51.56638495 12.81658592 53.82029287 12.84570312 56.07421875 C12.89512247 59.63880404 12.95328904 63.20218728 13.03833008 66.76611328 C13.1169747 70.19844012 13.15749019 73.62947771 13.19140625 77.0625 C13.22551102 78.12926971 13.25961578 79.19603943 13.29475403 80.2951355 C13.30512357 83.09615989 13.25808776 85.58815379 12.640625 88.3203125 C9.81323242 91.03564453 9.81323242 91.03564453 6.640625 92.3203125 C1.340625 92.0203125 1.340625 92.0203125 -0.359375 90.3203125 C-0.83711981 84.10963001 -0.83711981 84.10963001 1.078125 80.9453125 C3.30012609 77.21235068 3.33349405 73.58094904 3.640625 69.3203125 C1.01512204 70.29814789 -1.60979005 71.2775188 -4.234375 72.2578125 C-4.98074219 72.53560547 -5.72710938 72.81339844 -6.49609375 73.09960938 C-10.48662015 74.57130444 -10.48662015 74.57130444 -14.359375 76.3203125 C-23.58889277 76.99155016 -29.52445953 76.40642875 -37.296875 71.4453125 C-40.13425288 67.1462551 -40.30273285 63.76785829 -40.08984375 58.67578125 C-38.33289968 50.60511303 -31.53913305 45.89337005 -24.984375 41.5078125 C-16.02701378 36.21822872 -7.72295217 32.66336796 2.640625 31.3203125 C3.15027563 24.52497075 3.54616565 18.64473646 -0.7109375 13.01171875 C-5.73217053 7.8596005 -10.49519504 6.08648786 -17.60620117 5.88867188 C-20.90717505 5.87984279 -24.072084 5.95928054 -27.359375 6.3203125 C-28.019375 6.9803125 -28.679375 7.6403125 -29.359375 8.3203125 C-32.484375 8.4453125 -32.484375 8.4453125 -35.359375 8.3203125 C-35.72649548 3.79249319 -35.72649548 3.79249319 -34.14453125 1.7578125 C-26.05159457 -4.75903805 -8.67709123 -5.39488716 0 0 Z " transform="translate(802.359375,367.6796875)" style="fill: #080808;"/><path d="M0 0 C6.4235821 4.46742953 8.91022937 9.9396262 10.8984375 17.3203125 C11.3934375 18.8053125 11.3934375 18.8053125 11.8984375 20.3203125 C12.16310686 23.18546331 12.34239904 26.05007198 12.51953125 28.921875 C12.70708984 30.10910156 12.70708984 30.10910156 12.8984375 31.3203125 C13.8884375 31.8153125 13.8884375 31.8153125 14.8984375 32.3203125 C14.32259318 34.70595327 13.67616155 36.98714034 12.8984375 39.3203125 C12.83565347 40.91083008 12.83193118 42.50403101 12.86425781 44.09545898 C12.8804718 45.06333847 12.89668579 46.03121796 12.91339111 47.02842712 C12.93423767 48.07221024 12.95508423 49.11599335 12.9765625 50.19140625 C13.00381755 52.39646971 13.02982064 54.60154894 13.0546875 56.80664062 C13.09797529 60.28761827 13.1486439 63.76778193 13.22070312 67.24829102 C13.28722305 70.60445887 13.3220616 73.95973568 13.3515625 77.31640625 C13.38050598 78.35816513 13.40944946 79.39992401 13.43927002 80.47325134 C13.46591811 87.65040709 13.46591811 87.65040709 10.60839844 91.02368164 C7.01291586 92.74400668 4.71138501 92.21747662 0.8984375 91.3203125 C0.84427562 89.71651909 0.80557112 88.11219844 0.7734375 86.5078125 C0.75023437 85.61449219 0.72703125 84.72117187 0.703125 83.80078125 C0.8984375 81.3203125 0.8984375 81.3203125 2.8984375 78.3203125 C3.35238302 76.04118312 3.35238302 76.04118312 3.5234375 73.6328125 C3.59820312 72.82457031 3.67296875 72.01632812 3.75 71.18359375 C3.79898438 70.56871094 3.84796875 69.95382812 3.8984375 69.3203125 C1.27293454 70.29814789 -1.35197755 71.2775188 -3.9765625 72.2578125 C-4.72292969 72.53560547 -5.46929687 72.81339844 -6.23828125 73.09960938 C-10.22880765 74.57130444 -10.22880765 74.57130444 -14.1015625 76.3203125 C-23.31859649 76.99064224 -29.32885748 76.46826687 -37.0390625 71.3828125 C-40.26963787 66.58589755 -39.8968986 61.92590249 -39.1015625 56.3203125 C-34.38539555 45.65767419 -21.57321546 38.52079154 -11.1015625 34.3203125 C-6.52196788 32.89110281 -1.84337632 32.02172102 2.8984375 31.3203125 C3.54835377 21.06385263 3.54835377 21.06385263 -1.1015625 12.3203125 C-7.09938845 7.7804561 -11.60345642 6.13936679 -19.1015625 6.1328125 C-19.83890625 6.12056641 -20.57625 6.10832031 -21.3359375 6.09570312 C-23.25926308 6.09043855 -25.18210513 6.19827803 -27.1015625 6.3203125 C-27.7615625 6.9803125 -28.4215625 7.6403125 -29.1015625 8.3203125 C-32.2265625 8.4453125 -32.2265625 8.4453125 -35.1015625 8.3203125 C-34.3515625 2.5703125 -34.3515625 2.5703125 -32.1015625 0.3203125 C-22.22994296 -3.66489687 -9.66851614 -5.1397688 0 0 Z " transform="translate(472.1015625,561.6796875)" style="fill: #080808;"/><path d="M0 0 C2.86724686 0.57344937 3.8614515 0.8614515 6 3 C5.9765625 5.8203125 5.9765625 5.8203125 5.625 9.125 C5.45871094 10.76855469 5.45871094 10.76855469 5.2890625 12.4453125 C5.19367187 13.28835938 5.09828125 14.13140625 5 15 C5.51385254 14.76289307 6.02770508 14.52578613 6.55712891 14.28149414 C8.90973867 13.20103044 11.26725553 12.1317097 13.625 11.0625 C14.83736328 10.50272461 14.83736328 10.50272461 16.07421875 9.93164062 C20.39332093 7.98277744 24.23468956 6.46639209 29 6 C30.35931641 5.86464844 30.35931641 5.86464844 31.74609375 5.7265625 C37.44403834 5.51154572 41.18263864 5.82280821 45.62890625 9.5546875 C47.49023376 11.51677063 48.82099151 13.57262958 50 16 C54.03350194 15.40919773 56.92294774 14.10143883 60.4375 12.0625 C64.25212473 9.92855105 67.74838521 8.1091169 72 7 C72.69738281 6.81695313 73.39476562 6.63390625 74.11328125 6.4453125 C82.11814603 4.48109358 89.52878433 4.03379909 97 8 C102.19426953 12.46490341 105.52576641 17.22626142 106.2175293 24.18969727 C106.34269594 26.75574256 106.37965797 29.30589801 106.375 31.875 C106.37338867 32.80175537 106.37177734 33.72851074 106.37011719 34.68334961 C106.16116841 46.58216332 102.77570638 56.9971417 98.87890625 68.16796875 C97.68873002 72.00298104 97.00908893 75.85727702 96.39453125 79.8203125 C96 82 96 82 95 84 C91.37 84 87.74 84 84 84 C83.71428571 76.57142857 83.71428571 76.57142857 86 73 C86.66 73 87.32 73 88 73 C88.69088547 70.9273436 89.38139568 68.85456157 90.0703125 66.78125 C90.72561531 64.82084831 91.38771209 62.86271119 92.0546875 60.90625 C92.40789062 59.8646875 92.76109375 58.823125 93.125 57.75 C93.45757813 56.77546875 93.79015625 55.8009375 94.1328125 54.796875 C97.51356204 43.8931963 98.42773875 28.06169837 93.2109375 17.68359375 C90.72697827 14.23008914 87.89341534 13.29780511 84 12 C74.54806788 10.79337037 65.78207986 16.45401607 57.64453125 20.69140625 C55.60713241 22.31261435 55.35857473 23.46856941 55 26 C54.34 26 53.68 26 53 26 C52.01052989 36.76519201 51.69352976 47.51013419 51.4375 58.3125 C51.39418595 60.035815 51.35056819 61.7591224 51.30664062 63.48242188 C51.20093287 67.65486869 51.09930969 71.8273962 51 76 C45.359375 79.1015625 45.359375 79.1015625 42.125 78.1875 C41.42375 77.795625 40.7225 77.40375 40 77 C39.03525051 72.07977762 39.10158508 69.54941576 41 65 C43.30229874 55.05179558 43.29307829 45.13355426 43 35 C42.98195313 33.8553125 42.96390625 32.710625 42.9453125 31.53125 C42.66218015 24.93593176 41.45901512 20.0260575 37 15 C32.66388938 12.10925958 29.09060941 12.32674801 24 13 C16.82190061 15.17954837 8.65743713 18.15086214 4.86328125 25.07421875 C3.64897192 29.1896834 3.75093239 33.04487175 3.8125 37.3125 C3.81531982 38.21806641 3.81813965 39.12363281 3.82104492 40.05664062 C3.86201231 45.23350879 4.06335124 50.37729082 4.40625 55.54296875 C4.47223389 56.61957764 4.53821777 57.69618652 4.60620117 58.80541992 C4.74161252 60.90229269 4.89990249 62.99783857 5.08325195 65.09106445 C5.53823235 72.19603355 5.53823235 72.19603355 2.82421875 76.25 C0 78 0 78 -2.67651367 77.609375 C-3.44326416 77.40828125 -4.21001465 77.2071875 -5 77 C-4.99333817 76.40309357 -4.98667633 75.80618713 -4.97981262 75.19119263 C-4.91359161 68.99486665 -4.86825473 62.79864069 -4.83520508 56.60205078 C-4.82009147 54.28755615 -4.79960004 51.97309026 -4.77368164 49.65869141 C-4.73741159 46.33749304 -4.72029956 43.01667232 -4.70703125 39.6953125 C-4.69154739 38.65569366 -4.67606354 37.61607483 -4.66011047 36.54495239 C-4.65988388 35.58410736 -4.65965729 34.62326233 -4.65942383 33.63330078 C-4.65276199 32.78502716 -4.64610016 31.93675354 -4.63923645 31.06277466 C-4.75828842 30.38205902 -4.87734039 29.70134338 -5 29 C-5.99 28.34 -6.98 27.68 -8 27 C-8.375 24.5625 -8.375 24.5625 -8 22 C-7.48824219 21.57460938 -6.97648438 21.14921875 -6.44921875 20.7109375 C-4.70134399 19.02049093 -4.70134399 19.02049093 -4.99609375 16.22265625 C-5.21458984 14.65837891 -5.21458984 14.65837891 -5.4375 13.0625 C-6.00205041 8.95806594 -6.27040969 6.55554725 -4 3 C-3.01 3 -2.02 3 -1 3 C-0.67 2.01 -0.34 1.02 0 0 Z " transform="translate(521,561)" style="fill: #080808;"/><path d="M0 0 C1.00949707 0.17354004 2.01899414 0.34708008 3.05908203 0.52587891 C10.23336964 1.85836964 10.23336964 1.85836964 12.5 4.125 C12.73046875 6.21875 12.73046875 6.21875 12.6875 8.625 C12.68105469 9.4190625 12.67460937 10.213125 12.66796875 11.03125 C12.5 13.125 12.5 13.125 11.5 15.125 C8.86917793 15.5236094 7.08648061 15.48169777 4.78515625 14.08203125 C3.62183176 13.21399263 2.47352251 12.32534127 1.34375 11.4140625 C-8.01554711 4.87048613 -23.68589434 4.81328955 -34.54736328 6.4296875 C-42.14309462 7.80594203 -48.99739711 9.53058867 -54.90625 14.765625 C-56.5 16.125 -56.5 16.125 -59.625 17.4375 C-67.82716893 22.25181655 -72.06977959 34.21206743 -74.61328125 42.94921875 C-77.63024047 55.71339268 -75.73846267 67.10924822 -69.18359375 78.390625 C-65.37278262 84.07969916 -60.27499261 87.58651905 -54.5 91.125 C-53.49582031 91.74761719 -52.49164063 92.37023437 -51.45703125 93.01171875 C-37.54679471 101.09354923 -22.27652815 103.10714861 -6.5 100.125 C-5.39222766 96.80168298 -5.37064417 94.30431792 -5.3671875 90.8046875 C-5.36589844 89.5465625 -5.36460937 88.2884375 -5.36328125 86.9921875 C-5.36714844 85.67476562 -5.37101562 84.35734375 -5.375 83 C-5.37113281 81.70578125 -5.36726563 80.4115625 -5.36328125 79.078125 C-5.37014101 72.34183705 -5.57982269 65.79993697 -6.5 59.125 C-2.21 59.125 2.08 59.125 6.5 59.125 C6.335 60.836875 6.17 62.54875 6 64.3125 C5.52416918 70.5050983 5.38816279 76.66490594 5.375 82.875 C5.37048828 83.74922607 5.36597656 84.62345215 5.36132812 85.52416992 C5.3708886 89.74232997 5.54878394 93.8000618 6.12890625 97.98046875 C6.56031141 101.469458 6.42085538 103.59024104 4.5625 106.6875 C4.18222656 107.34878906 3.80195313 108.01007813 3.41015625 108.69140625 C3.10980469 109.16449219 2.80945313 109.63757813 2.5 110.125 C1.50097656 110.11339844 0.50195312 110.10179687 -0.52734375 110.08984375 C-2.46287109 110.07630859 -2.46287109 110.07630859 -4.4375 110.0625 C-5.72527344 110.05089844 -7.01304687 110.03929687 -8.33984375 110.02734375 C-11.36298403 109.75967451 -11.36298403 109.75967451 -12.5 111.125 C-16.03430291 111.37891333 -19.58266874 111.31023797 -23.125 111.3125 C-24.60419922 111.33086914 -24.60419922 111.33086914 -26.11328125 111.34960938 C-31.6813041 111.36076029 -36.23723002 110.93491201 -41.5 109.125 C-42.29664063 108.93679688 -43.09328125 108.74859375 -43.9140625 108.5546875 C-57.95820834 105.03124455 -72.14067747 94.34340009 -80.0625 82.1875 C-87.30360497 68.64513849 -86.77525617 54.19334676 -82.71484375 39.8125 C-81.17912485 35.15102528 -79.12833473 31.23736047 -76.5 27.125 C-76.16226562 26.40828125 -75.82453125 25.6915625 -75.4765625 24.953125 C-74.5 23.125 -74.5 23.125 -72.5 22.125 C-72.06816406 21.3721875 -71.63632812 20.619375 -71.19140625 19.84375 C-64.5358504 9.14567408 -51.16681608 3.47032361 -39.5 0.125 C-38.54480469 -0.184375 -38.54480469 -0.184375 -37.5703125 -0.5 C-25.43151918 -3.90075144 -12.18935912 -2.09662309 0 0 Z " transform="translate(407.5,529.875)" style="fill: #080808;"/><path d="M0 0 C5.21579941 5.21579941 6.25680938 10.47872747 6.6875 17.6875 C6.73455078 18.36361328 6.78160156 19.03972656 6.83007812 19.73632812 C7.133374 24.733252 7.133374 24.733252 6 27 C0.25026516 28.34770957 -5.92234101 28.12774269 -11.796875 28.0625 C-12.59353577 28.05871338 -13.39019653 28.05492676 -14.21099854 28.05102539 C-16.7240578 28.03894308 -19.23699463 28.02030907 -21.75 28 C-25.07812192 27.9733293 -28.40618614 27.95339563 -31.734375 27.9375 C-32.48966492 27.92920166 -33.24495483 27.92090332 -34.02313232 27.91235352 C-37.81524415 27.89474425 -41.31450057 28.07817149 -45 29 C-45 29.66 -45 30.32 -45 31 C-45.66 31 -46.32 31 -47 31 C-46.7434505 33.71037002 -46.47028951 36.41734615 -46.1875 39.125 C-46.11724609 39.88554688 -46.04699219 40.64609375 -45.97460938 41.4296875 C-45.34404528 47.2813223 -44.27719781 51.91389571 -39.765625 56.046875 C-38.93546875 56.60890625 -38.1053125 57.1709375 -37.25 57.75 C-36.02023437 58.60851562 -36.02023437 58.60851562 -34.765625 59.484375 C-27.57678273 63.42402303 -20.78802631 63.30796654 -12.75 63.25 C-11.11804688 63.26160156 -11.11804688 63.26160156 -9.453125 63.2734375 C-7.89078125 63.26957031 -7.89078125 63.26957031 -6.296875 63.265625 C-4.87906738 63.26224121 -4.87906738 63.26224121 -3.43261719 63.25878906 C-0.74169348 63.16259506 -0.74169348 63.16259506 2 61 C3.32 61 4.64 61 6 61 C6.29363808 65.99184736 6.07836372 68.97444744 3 73 C-6.38374423 77.69187212 -22.52109016 73.58223975 -32.07519531 70.65039062 C-41.04289554 67.62020881 -47.42875809 64.19331654 -52.17578125 55.9609375 C-56.72320148 46.61606706 -56.34993011 35.34977007 -53.375 25.5625 C-49.85239571 16.47270292 -44.73438259 9.88165977 -37 4 C-36.38382813 3.525625 -35.76765625 3.05125 -35.1328125 2.5625 C-24.69258371 -4.71533584 -11.05354134 -6.71497186 0 0 Z " transform="translate(701,567)" style="fill: #0C0C0C;"/><path d="M0 0 C5.21579941 5.21579941 6.25680938 10.47872747 6.6875 17.6875 C6.73455078 18.36361328 6.78160156 19.03972656 6.83007812 19.73632812 C7.133374 24.733252 7.133374 24.733252 6 27 C0.25026516 28.34770957 -5.92234101 28.12774269 -11.796875 28.0625 C-12.59353577 28.05871338 -13.39019653 28.05492676 -14.21099854 28.05102539 C-16.7240578 28.03894308 -19.23699463 28.02030907 -21.75 28 C-25.07812192 27.9733293 -28.40618614 27.95339563 -31.734375 27.9375 C-32.48966492 27.92920166 -33.24495483 27.92090332 -34.02313232 27.91235352 C-37.81524415 27.89474425 -41.31450057 28.07817149 -45 29 C-45 29.66 -45 30.32 -45 31 C-45.66 31 -46.32 31 -47 31 C-46.7434505 33.71037002 -46.47028951 36.41734615 -46.1875 39.125 C-46.11724609 39.88554687 -46.04699219 40.64609375 -45.97460938 41.4296875 C-45.34404528 47.2813223 -44.27719781 51.91389571 -39.765625 56.046875 C-38.93546875 56.60890625 -38.1053125 57.1709375 -37.25 57.75 C-36.02023437 58.60851562 -36.02023437 58.60851562 -34.765625 59.484375 C-27.57678273 63.42402303 -20.78802631 63.30796654 -12.75 63.25 C-11.11804688 63.26160156 -11.11804688 63.26160156 -9.453125 63.2734375 C-7.89078125 63.26957031 -7.89078125 63.26957031 -6.296875 63.265625 C-4.87906738 63.26224121 -4.87906738 63.26224121 -3.43261719 63.25878906 C-0.74169348 63.16259506 -0.74169348 63.16259506 2 61 C3.32 61 4.64 61 6 61 C6.29363808 65.99184736 6.07836372 68.97444744 3 73 C-6.38374423 77.69187212 -22.52109016 73.58223975 -32.07519531 70.65039062 C-41.04289554 67.62020881 -47.42875809 64.19331654 -52.17578125 55.9609375 C-56.72320148 46.61606706 -56.34993011 35.34977007 -53.375 25.5625 C-49.85239571 16.47270292 -44.73438259 9.88165977 -37 4 C-36.38382812 3.525625 -35.76765625 3.05125 -35.1328125 2.5625 C-24.69258371 -4.71533584 -11.05354134 -6.71497186 0 0 Z " transform="translate(352,373)" style="fill: #0C0C0C;"/><path d="M0 0 C0.495 0.495 0.495 0.495 1 1 C0.6354899 10.11275255 -2.88535871 19.17665583 -6.515625 27.45703125 C-8.12587915 31.30045365 -9.28957915 35.10966405 -10.375 39.125 C-10.58705078 39.8890918 -10.79910156 40.65318359 -11.01757812 41.44042969 C-12.21145269 45.81620887 -13.2865732 50.20219816 -14.2578125 54.6328125 C-14.57032959 56.03635986 -14.57032959 56.03635986 -14.88916016 57.46826172 C-15.28735322 59.28161576 -15.67059871 61.09833664 -16.03662109 62.91845703 C-17.26957312 68.52779444 -18.6746923 72.10722307 -23 76 C-25.8125 76.375 -25.8125 76.375 -28 76 C-28.34289062 74.98808594 -28.68578125 73.97617187 -29.0390625 72.93359375 C-34.28844196 57.90813322 -40.93614314 43.54824465 -47.59887695 29.11181641 C-48.80613012 26.43057424 -49.93443769 23.74001738 -51 21 C-52.32 21 -53.64 21 -55 21 C-56.43594697 24.89316782 -57.86933053 28.78726914 -59.30117798 32.6819458 C-60.06109867 34.74619344 -60.82380708 36.80939672 -61.58666992 38.87255859 C-63.84202863 44.98912066 -66.06925408 51.10153758 -68.078125 57.3046875 C-68.37710693 58.21637695 -68.67608887 59.12806641 -68.98413086 60.06738281 C-69.52104181 61.72511316 -70.04119857 63.38840118 -70.54125977 65.05761719 C-71.82306412 68.98510356 -72.72471298 70.75339647 -75.88671875 73.5859375 C-79.37177353 75.16886075 -80.42616855 74.91209719 -84 74 C-84.11891602 72.91005737 -84.11891602 72.91005737 -84.24023438 71.7980957 C-87.56095543 41.43582577 -87.56095543 41.43582577 -97.60717773 12.84155273 C-99.17469752 9.64359256 -99.25105137 7.51471914 -99 4 C-94.77050005 1.58314288 -91.87664009 0.65166856 -87 1 C-85.73272803 3.53454394 -85.87427396 5.76989811 -85.8112793 8.55957031 C-85.51206935 19.86517662 -83.08042287 30.16415955 -80 41 C-79.59351425 42.45826764 -79.18725212 43.91659764 -78.78125 45.375 C-77.8783857 48.59059501 -76.94903119 51.79768245 -76 55 C-74.02610964 52.03916447 -72.72228605 49.23437565 -71.3203125 45.96875 C-70.80339844 44.76476562 -70.28648437 43.56078125 -69.75390625 42.3203125 C-69.48594238 41.69157227 -69.21797852 41.06283203 -68.94189453 40.41503906 C-68.13888974 38.53256161 -67.32960286 36.65288281 -66.51953125 34.7734375 C-60.60229111 22.07119622 -60.60229111 22.07119622 -57.5 8.5625 C-57 5 -57 5 -55.25 2.4375 C-53 1 -53 1 -50.25 1.25 C-49.5075 1.4975 -48.765 1.745 -48 2 C-47.63390625 3.17046875 -47.2678125 4.3409375 -46.890625 5.546875 C-44.77218293 11.89227876 -42.18994091 18.04437385 -39.60400391 24.20947266 C-38.75871615 26.22917392 -37.92406999 28.25305319 -37.08984375 30.27734375 C-31.95636444 44.99879041 -31.95636444 44.99879041 -22.79199219 56.35253906 C-22.20063477 56.56620117 -21.60927734 56.77986328 -21 57 C-20.81824219 56.32195312 -20.63648438 55.64390625 -20.44921875 54.9453125 C-19.21113906 50.36124308 -17.95360624 45.79020389 -16.5625 41.25 C-16.04115113 39.50015352 -15.52037697 37.75013576 -15 36 C-14.64421875 34.84371094 -14.2884375 33.68742187 -13.921875 32.49609375 C-11.47650266 24.10088941 -10.52996175 16.7218209 -11 8 C-11 4.80780296 -10.76394209 3.60391451 -9 1 C-5.68344517 -0.83283293 -3.56766191 -1.40158146 0 0 Z " transform="translate(469,371)" style="fill: #080808;"/><path d="M0 0 C1.3081681 1.1030175 2.57862407 2.25196148 3.8125 3.4375 C4.48925781 4.07945312 5.16601562 4.72140625 5.86328125 5.3828125 C11.77134925 12.17886667 11.65017082 19.17513796 11.3515625 27.75390625 C10.44560801 38.947581 4.8145615 49.30646681 -3.34375 56.91015625 C-12.62422148 64.59800445 -22.18956502 66.90218401 -34.0625 67.375 C-35.07441406 67.44267578 -36.08632813 67.51035156 -37.12890625 67.58007812 C-47.09734366 68.02042523 -55.67971258 65.41079222 -63.46875 59.07421875 C-68.66654371 54.12450156 -71.69718224 48.72492973 -72.5234375 41.5 C-72.69506726 28.04422664 -69.55847008 16.3901165 -60.1875 6.4375 C-45.00435678 -6.86015484 -17.46864398 -11.65676999 0 0 Z M-38.1875 1.4375 C-38.5175 2.0975 -38.8475 2.7575 -39.1875 3.4375 C-41.04296875 3.9296875 -41.04296875 3.9296875 -43.375 4.3125 C-50.99618718 5.91632578 -54.67473538 9.61327985 -58.890625 15.92578125 C-63.12112728 24.11919381 -63.51234648 34.06469833 -61.65234375 43.01171875 C-58.98776288 50.65600814 -53.8075828 55.17600551 -46.94140625 59.04296875 C-38.42677024 62.74002138 -24.89162726 61.95105759 -16.31640625 58.71484375 C-7.32180673 53.31808404 -1.58231346 43.09642746 1.8125 33.4375 C3.3484996 24.72689581 1.77500995 17.7176657 -3.1875 10.4375 C-7.93522851 4.83761509 -13.78989394 0.49054001 -21.1875 -0.5625 C-30.0574291 -1.39576797 -30.0574291 -1.39576797 -38.1875 1.4375 Z " transform="translate(672.1875,377.5625)" style="fill: #080808;"/><path d="M0 0 C3.22270391 0.04612099 5.51294907 0.23302047 8.1875 2.1875 C10.1875 5.1875 10.1875 5.1875 9.875 7.125 C9.648125 7.805625 9.42125 8.48625 9.1875 9.1875 C8.00336369 13.01539493 7.86252031 16.89624821 7.66015625 20.87109375 C7.61883072 21.65197861 7.57750519 22.43286346 7.53492737 23.2374115 C7.04559673 33.14351828 6.86520724 43.05821269 6.68481445 52.97387695 C6.62501927 56.24894464 6.55996757 59.52387666 6.49414062 62.79882812 C6.31017104 72.1970583 6.14619274 81.59606508 6.09765625 90.99609375 C6.09000244 92.30247803 6.08234863 93.6088623 6.07446289 94.95483398 C6.16648214 97.5864254 6.39351411 99.697325 7.1875 102.1875 C13.99471448 103.07082546 20.63948408 103.34025664 27.5 103.3125 C28.96276367 103.31830078 28.96276367 103.31830078 30.45507812 103.32421875 C31.86370117 103.32228516 31.86370117 103.32228516 33.30078125 103.3203125 C34.14423096 103.31918457 34.98768066 103.31805664 35.85668945 103.31689453 C38.10675749 103.19198241 40.01427921 102.74976332 42.1875 102.1875 C44.78123914 102.11851758 47.34560197 102.09315248 49.9375 102.125 C50.63488281 102.12951172 51.33226562 102.13402344 52.05078125 102.13867188 C53.76305803 102.1503998 55.47529033 102.16833347 57.1875 102.1875 C57.3125 109.9375 57.3125 109.9375 56.1875 112.1875 C54.54119672 112.04707123 52.89545821 111.90000671 51.25 111.75 C50.33347656 111.66878906 49.41695312 111.58757812 48.47265625 111.50390625 C46.1875 111.1875 46.1875 111.1875 45.1875 110.1875 C42.40896442 110.15810761 39.65880164 110.19220056 36.8828125 110.2734375 C36.04789276 110.29467682 35.21297302 110.31591614 34.35275269 110.33779907 C32.58226908 110.38415309 30.8118515 110.43308845 29.04150391 110.484375 C26.33119408 110.56196483 23.62076842 110.62923609 20.91015625 110.6953125 C19.19269148 110.74156588 17.47524279 110.78842114 15.7578125 110.8359375 C14.9452298 110.85578705 14.13264709 110.8756366 13.29544067 110.89608765 C10.03272984 110.99592006 7.30266916 111.14911028 4.1875 112.1875 C2.45425881 112.10288508 0.72357188 111.95145645 -1 111.75 C-1.90105469 111.64816406 -2.80210937 111.54632813 -3.73046875 111.44140625 C-4.76107422 111.31572266 -4.76107422 111.31572266 -5.8125 111.1875 C-5.9375 104.5625 -5.9375 104.5625 -4.8125 101.1875 C-3.47543023 91.31766611 -3.64900926 81.32034964 -3.64453125 71.3828125 C-3.64131045 69.68797783 -3.63794578 67.99314344 -3.63444519 66.29830933 C-3.62849902 62.77015538 -3.62660097 59.24202578 -3.62719727 55.71386719 C-3.62729946 51.20158144 -3.61356813 46.68945101 -3.59642506 42.17720222 C-3.58529988 38.68729944 -3.5832781 35.19743442 -3.58380699 31.70751572 C-3.58263072 30.04339938 -3.5782288 28.37928195 -3.57047462 26.71518326 C-3.5606497 24.39220456 -3.56356087 22.06956651 -3.56958008 19.74658203 C-3.56744255 17.76901413 -3.56744255 17.76901413 -3.56526184 15.75149536 C-3.81036376 12.21829435 -4.62886472 9.50233739 -5.8125 6.1875 C-5.15315934 0.25343407 -5.15315934 0.25343407 0 0 Z " transform="translate(536.8125,333.8125)" style="fill: #060606;"/><path d="M0 0 C2.875 0.625 2.875 0.625 4.8125 2.3125 C6.16435942 5.25478228 5.88785013 6.58644962 4.875 9.625 C3.885 11.11 3.885 11.11 2.875 12.625 C2.57516131 14.6898054 2.57516131 14.6898054 2.62103271 16.98733521 C2.61539307 17.87876724 2.60975342 18.77019928 2.60394287 19.68864441 C2.60799133 20.6642482 2.61203979 21.63985199 2.61621094 22.64501953 C2.6127063 23.67463303 2.60920166 24.70424652 2.60559082 25.76506042 C2.5967671 29.17937913 2.60262759 32.59349157 2.609375 36.0078125 C2.60802792 38.38093099 2.60608702 40.75404921 2.60357666 43.12716675 C2.60062402 48.10889302 2.6049253 53.09054767 2.61425781 58.07226562 C2.62561517 64.44425265 2.61911732 70.8160705 2.60711288 77.18805122 C2.59986631 82.09352885 2.60219571 86.99896678 2.60736847 91.90444565 C2.60869916 94.25268448 2.60707764 96.60092696 2.60240936 98.94916153 C2.59730237 102.24240827 2.60511463 105.53538641 2.61621094 108.82861328 C2.61216248 109.79207169 2.60811401 110.75553009 2.60394287 111.7481842 C2.6361416 116.93427898 3.11343264 121.65426655 4.3855629 126.68791008 C5.04753891 129.30787302 5.4643515 131.95578475 5.875 134.625 C-1.01066413 137.64922469 -1.01066413 137.64922469 -5 137.5625 C-7.125 136.625 -7.125 136.625 -8.31176758 134.9453125 C-9.40821443 131.81693337 -8.87393576 129.82003743 -8.26171875 126.5625 C-6.35769767 114.68103377 -6.87158435 102.61988259 -6.9375 90.625 C-6.94436722 88.07959078 -6.9508744 85.53418057 -6.95703125 82.98876953 C-7.01613677 65.89667701 -7.28859436 48.81637731 -7.83921814 31.73320007 C-7.94594822 28.36402331 -8.03816436 24.99476289 -8.125 21.625 C-8.14338928 20.92845306 -8.16177856 20.23190613 -8.1807251 19.51425171 C-8.22956476 17.44829839 -8.26191908 15.38274671 -8.2890625 13.31640625 C-8.3092041 12.12217041 -8.3293457 10.92793457 -8.35009766 9.69750977 C-8.12625795 6.64217056 -7.79191181 5.13033816 -6 2.6875 C-3.125 0.625 -3.125 0.625 0 0 Z " transform="translate(851.125,307.375)" style="fill: #030303;"/><path d="M0 0 C0 3.96 0 7.92 0 12 C-6.0075188 12 -6.0075188 12 -10 9 C-18.77735377 7.29357616 -26.23046116 7.31877158 -34 12 C-39.89285714 15 -39.89285714 15 -42 15 C-42.2475 15.70125 -42.495 16.4025 -42.75 17.125 C-44 20 -44 20 -46.05078125 22.58984375 C-48.59976821 27.04929389 -48.55956758 30.4012279 -48.4375 35.4375 C-48.44813477 36.66823242 -48.44813477 36.66823242 -48.45898438 37.92382812 C-48.3606518 47.4015752 -44.69135385 53.41296569 -38 60 C-30.24204712 65.96765606 -20.32299373 65.55153091 -11 65 C-7.89908875 64.51587388 -5.03122043 63.83619874 -2 63 C-2 62.34 -2 61.68 -2 61 C-0.0625 61.5625 -0.0625 61.5625 2 63 C3.42682927 69.14634146 3.42682927 69.14634146 2 72 C-10.71903259 75.91726859 -27.19984378 75.97513423 -39.328125 70.48046875 C-47.14965102 66.1466115 -52.16635994 60.27573633 -55.11328125 51.796875 C-57.26187832 42.59671484 -57.68104969 30.85746445 -53.44921875 22.23046875 C-46.65503008 11.77364468 -37.11455001 3.09408502 -24.71484375 0.421875 C-16.51365806 -0.50948994 -8.2382069 -0.20826928 0 0 Z " transform="translate(752,371)" style="fill: #080808;"/><path d="M0 0 C3.21291011 2.45988431 3.84797144 4.97923681 4.4375 8.9375 C4.34442501 15.16022773 0.74331465 22.20168155 -3.55859375 26.58984375 C-5.0625 27.625 -5.0625 27.625 -8 29 C-8.763125 29.4125 -9.52625 29.825 -10.3125 30.25 C-15.09012845 31.58329166 -19.6151236 32.0374419 -24.25390625 30.01953125 C-27.74714012 27.9287375 -31.27287046 25.77809588 -33 22 C-33.59154884 17.99061343 -33.917474 15.54135632 -31.828125 12.03125 C-24.46050544 3.06857878 -11.55925608 -2.16736051 0 0 Z " transform="translate(473,601)" style="fill: #FAFAFA;"/><path d="M0 0 C1.15371094 -0.02578125 2.30742188 -0.0515625 3.49609375 -0.078125 C6.5625 0.25 6.5625 0.25 8.41015625 1.578125 C10.89140077 5.1780323 11.32108347 9.04464891 10.5625 13.25 C8.04321961 20.26865938 5.24725942 26.00992416 -1.5625 29.4921875 C-3.91118825 30.441449 -5.90173375 31.05494106 -8.4375 31.25 C-9.530625 31.37375 -10.62375 31.4975 -11.75 31.625 C-17.45776102 31.04454973 -21.25630629 28.2267068 -25.4375 24.4375 C-27.00995167 20.99776196 -27.27867175 17.88603273 -26.4375 14.25 C-22.23235063 7.18534906 -15.73703124 4.2799941 -8.4375 1.25 C-5.60720852 -0.16514574 -3.15370867 0.04219008 0 0 Z " transform="translate(796.4375,406.75)" style="fill: #FAFAFA;"/><path d="M0 0 C2.7957625 2.36564519 3.8948614 3.8762235 4.23828125 7.546875 C4.24886765 10.04526433 4.17418402 12.50820084 4 15 C0.88945662 16.55527169 -2.45276685 16.38650976 -5.875 16.5625 C-6.65987793 16.6049585 -7.44475586 16.64741699 -8.25341797 16.69116211 C-17.50006406 17.14339426 -26.74530209 17.08694393 -36 17 C-35.17107835 12.98895202 -33.53823508 11.02828181 -30.75 8 C-29.59757813 6.7315625 -29.59757813 6.7315625 -28.421875 5.4375 C-20.10903733 -2.92896888 -10.7627696 -6.00231382 0 0 Z " transform="translate(694,572)" style="fill: #FCFCFC;"/><path d="M0 0 C2.7957625 2.36564519 3.8948614 3.8762235 4.23828125 7.546875 C4.24886765 10.04526433 4.17418402 12.50820084 4 15 C0.88945662 16.55527169 -2.45276685 16.38650976 -5.875 16.5625 C-6.65987793 16.6049585 -7.44475586 16.64741699 -8.25341797 16.69116211 C-17.50006406 17.14339426 -26.74530209 17.08694393 -36 17 C-35.17107835 12.98895202 -33.53823508 11.02828181 -30.75 8 C-29.59757812 6.7315625 -29.59757812 6.7315625 -28.421875 5.4375 C-20.10903733 -2.92896888 -10.7627696 -6.00231382 0 0 Z " transform="translate(345,378)" style="fill: #FCFCFC;"/></svg>