<svg id="svg" version="1.1" xmlns="http://www.w3.org/2000/svg" viewBox="0 0 1024 1024" style="display: block;"><path d="M0 0 C337.92 0 675.84 0 1024 0 C1024 337.92 1024 675.84 1024 1024 C686.08 1024 348.16 1024 0 1024 C0 686.08 0 348.16 0 0 Z " transform="translate(0,0)" style="fill: #FEFEFE;"/><path d="M0 0 C3.24581776 0.1328076 4.63124503 0.63566126 6.95703125 2.93359375 C7.56933594 3.75988281 8.18164062 4.58617187 8.8125 5.4375 C9.50085938 6.345 10.18921875 7.2525 10.8984375 8.1875 C11.59195313 9.115625 12.28546875 10.04375 13 11 C14.30558078 12.65132747 15.61797494 14.29729355 16.9375 15.9375 C17.60007813 16.76378906 18.26265625 17.59007812 18.9453125 18.44140625 C19.62335938 19.28574219 20.30140625 20.13007813 21 21 C21.69867188 21.87527344 22.39734375 22.75054687 23.1171875 23.65234375 C27.04907218 28.5287203 31.09721537 33.23740594 35.375 37.8125 C39.82432633 42.58046804 43.88899543 47.56065014 47.87670898 52.71801758 C52.26991109 58.39000675 56.8755765 63.86036504 61.546875 69.30419922 C63.10895278 71.12714818 64.66416106 72.95581789 66.21875 74.78515625 C67.29148142 76.04442866 68.3643939 77.30354687 69.4375 78.5625 C69.9337085 79.14644531 70.42991699 79.73039062 70.94116211 80.33203125 C75.65566906 86.29811193 75.65566906 86.29811193 82 90 C81.97121513 88.39387093 81.97121513 88.39387093 81.94184875 86.7552948 C81.76318616 76.67588766 81.60045485 66.59633317 81.45341206 56.51641369 C81.37729693 51.33393042 81.29552546 46.15166388 81.20092773 40.96948242 C81.10988166 35.97055536 81.03356234 30.97160246 80.96755028 25.97228432 C80.93972917 24.06278376 80.90655697 22.1533536 80.86800575 20.24403954 C80.81500687 17.57438267 80.78085733 14.90511134 80.7512207 12.23510742 C80.72101585 11.04504089 80.72101585 11.04504089 80.69020081 9.83093262 C80.65877815 4.50069828 80.65877815 4.50069828 82.36051941 2.00361633 C84.69551183 0.57423891 86.47695139 0.70689421 89.1875 0.8125 C90.08855469 0.83957031 90.98960937 0.86664063 91.91796875 0.89453125 C92.94857422 0.94673828 92.94857422 0.94673828 94 1 C93.81824219 1.82177734 93.81824219 1.82177734 93.6328125 2.66015625 C88.62705142 26.34125675 88.92472555 50.52521971 88.875 74.625 C88.87232117 75.36932281 88.86964233 76.11364563 88.86688232 76.88052368 C88.86107426 78.99592065 88.86272157 81.11116495 88.8671875 83.2265625 C88.86887939 85.04534912 88.86887939 85.04534912 88.87060547 86.90087891 C88.9788756 89.49405068 89.30145876 91.52974718 90 94 C90.14290456 96.33044356 90.22032247 98.66536767 90.25 101 C90.27578125 102.216875 90.3015625 103.43375 90.328125 104.6875 C89.98270375 108.17460976 89.37448823 109.50053871 87 112 C84.34202177 111.92182417 82.56107071 111.51637002 80.578125 109.69140625 C78.41208733 107.17018498 76.40869528 104.54459149 74.4140625 101.88671875 C71.21698975 97.66147941 67.91960227 93.83149231 64.125 90.125 C59.86194103 85.95196037 56.0742094 81.57847218 52.3515625 76.921875 C49.76795653 73.7116802 47.11123039 70.5725188 44.4375 67.4375 C40.56699091 62.88767436 36.80038161 58.27164715 33.08984375 53.58984375 C30.17369197 49.97599584 27.16467151 46.4441071 24.15429688 42.90869141 C20.32643906 38.40682097 16.58654326 33.84068044 12.875 29.2421875 C10.57483152 26.48587911 10.57483152 26.48587911 8 24 C7.34 24 6.68 24 6 24 C3.97996044 35.21029927 3.6838044 46.08295241 3.75 57.4375 C3.75177246 58.31485809 3.75354492 59.19221619 3.75537109 60.09616089 C3.7862295 73.11974426 4.35378553 85.96170455 5.8125 98.91064453 C6.08557488 101.95358045 6.06557063 104.94686737 6 108 C2.93753253 109.78409802 0.77920727 110.22880021 -2.75 110.125 C-3.54921875 110.10695313 -4.3484375 110.08890625 -5.171875 110.0703125 C-5.77515625 110.04710937 -6.3784375 110.02390625 -7 110 C-7.02685095 107.52076199 -7.04676547 105.0418116 -7.0625 102.5625 C-7.07506836 101.50192383 -7.07506836 101.50192383 -7.08789062 100.41992188 C-7.09653588 98.61306441 -7.05220011 96.80612397 -7 95 C-6.505 94.505 -6.505 94.505 -6 94 C-5.00557284 85.01608388 -4.78871928 75.93199828 -4.5 66.90234375 C-4.45939453 65.7067836 -4.41878906 64.51122345 -4.37695312 63.2794342 C-4.24883642 59.4988674 -4.12414019 55.71819929 -4 51.9375 C-3.71739847 43.41584953 -3.4287891 34.89448596 -3.12060547 26.37371826 C-3.04136895 24.15722106 -2.96478954 21.94062698 -2.89111328 19.72393799 C-2.79095101 16.75432282 -2.67859144 13.78543518 -2.5625 10.81640625 C-2.53542969 9.94290024 -2.50835937 9.06939423 -2.48046875 8.16941833 C-2.22883465 2.22883465 -2.22883465 2.22883465 0 0 Z " transform="translate(113,331)" style="fill: #080808;"/><path d="M0 0 C12.45048072 13.92408834 14.48617473 29.25620326 13.59814453 47.19775391 C12.9233996 54.11244773 10.38521581 59.9659723 7.3125 66.125 C6.77109375 67.27226562 6.2296875 68.41953125 5.671875 69.6015625 C-1.89104171 84.69205518 -11.6182018 94.32911608 -27.3984375 100.3984375 C-34.40067919 102.62099203 -41.40786436 102.34546801 -48.6875 102.375 C-50.59402344 102.4059375 -50.59402344 102.4059375 -52.5390625 102.4375 C-54.37597656 102.44523437 -54.37597656 102.44523437 -56.25 102.453125 C-57.36503906 102.4624707 -58.48007812 102.47181641 -59.62890625 102.48144531 C-63.06810962 102.08064415 -64.83893844 101.03081195 -67.6875 99.125 C-68.904375 98.7125 -70.12125 98.3 -71.375 97.875 C-81.30303141 94.27163132 -89.4731345 87.12980657 -94 77.625 C-99.35937871 65.50421103 -98.5157079 46.23136235 -93.9296875 34.0546875 C-93.31480469 32.60449219 -93.31480469 32.60449219 -92.6875 31.125 C-92.29820312 30.07570313 -91.90890625 29.02640625 -91.5078125 27.9453125 C-88.83742968 21.3562614 -85.34450263 15.97864019 -80.8125 10.5625 C-80.33103516 9.97863525 -79.84957031 9.39477051 -79.35351562 8.79321289 C-76.10257655 5.09705059 -72.92881951 2.93894187 -68.41748047 0.96899414 C-66.49067541 0.14515424 -66.49067541 0.14515424 -64.6875 -1.875 C-63.03758418 -2.58210678 -61.36816146 -3.24444526 -59.6875 -3.875 C-58.89730469 -4.21660156 -58.10710937 -4.55820312 -57.29296875 -4.91015625 C-41.35669901 -11.68114 -13.69104455 -12.2694011 0 0 Z M-44.6875 0.125 C-46.59496609 0.35925022 -48.50307299 0.58945182 -50.4140625 0.79296875 C-60.28335078 2.23435965 -69.38041758 6.86078815 -75.69140625 14.57421875 C-76.8676454 16.09827346 -76.8676454 16.09827346 -76.6875 18.125 C-77.3475 18.125 -78.0075 18.125 -78.6875 18.125 C-79.05875 19.176875 -79.05875 19.176875 -79.4375 20.25 C-80.6875 23.125 -80.6875 23.125 -82.625 25.8125 C-89.22014964 36.40471003 -90.59840734 51.51106538 -87.93359375 63.5234375 C-86.26694538 68.81749703 -84.5300066 73.01749295 -80.6875 77.125 C-80.3575 78.115 -80.0275 79.105 -79.6875 80.125 C-70.14356373 90.26278119 -56.89677621 93.64986662 -43.4140625 94.27734375 C-32.64079299 94.5644778 -23.53106298 92.59975147 -14.6875 86.125 C-14.1925 84.64 -14.1925 84.64 -13.6875 83.125 C-12.015625 82.1953125 -12.015625 82.1953125 -9.9375 81.25 C-3.84917514 77.60787709 -2.6746724 71.58861415 -0.6875 65.125 C-0.29433594 64.04992187 0.09882812 62.97484375 0.50390625 61.8671875 C5.20464727 48.01064777 5.57610735 31.54701575 -0.6875 18.125 C-2.40015787 15.11518114 -4.3062397 12.63333452 -6.6875 10.125 C-7.27402344 9.49851562 -7.86054687 8.87203125 -8.46484375 8.2265625 C-17.49305696 -0.52471166 -28.75334474 -1.87451967 -40.8046875 -2.10546875 C-42.93186436 -2.0412722 -42.93186436 -2.0412722 -44.6875 0.125 Z " transform="translate(548.6875,338.875)" style="fill: #070707;"/><path d="M0 0 C5.96293262 4.17159895 9.91481467 10.19897237 11.29101562 17.37524414 C11.55939614 19.48286375 11.77579142 21.58661299 11.9609375 23.703125 C12.19255468 26.27613961 12.49617363 28.77151463 12.8984375 31.328125 C13.8884375 31.823125 13.8884375 31.823125 14.8984375 32.328125 C14.32259318 34.71376577 13.67616155 36.99495284 12.8984375 39.328125 C12.83565347 40.91864258 12.83193118 42.51184351 12.86425781 44.10327148 C12.8804718 45.07115097 12.89668579 46.03903046 12.91339111 47.03623962 C12.93423767 48.08002274 12.95508423 49.12380585 12.9765625 50.19921875 C13.00381755 52.40428221 13.02982064 54.60936144 13.0546875 56.81445312 C13.09797529 60.29543077 13.1486439 63.77559443 13.22070312 67.25610352 C13.28722305 70.61227137 13.3220616 73.96754818 13.3515625 77.32421875 C13.38050598 78.36597763 13.40944946 79.40773651 13.43927002 80.48106384 C13.46591811 87.65821959 13.46591811 87.65821959 10.60839844 91.03149414 C7.01291586 92.75181918 4.71138501 92.22528912 0.8984375 91.328125 C0.84427562 89.72433159 0.80557112 88.12001094 0.7734375 86.515625 C0.75023437 85.62230469 0.72703125 84.72898437 0.703125 83.80859375 C0.8984375 81.328125 0.8984375 81.328125 2.8984375 78.328125 C3.35238302 76.04899562 3.35238302 76.04899562 3.5234375 73.640625 C3.59820312 72.83238281 3.67296875 72.02414062 3.75 71.19140625 C3.79898438 70.57652344 3.84796875 69.96164062 3.8984375 69.328125 C1.27293454 70.30596039 -1.35197755 71.2853313 -3.9765625 72.265625 C-4.72292969 72.54341797 -5.46929687 72.82121094 -6.23828125 73.10742188 C-10.22880765 74.57911694 -10.22880765 74.57911694 -14.1015625 76.328125 C-23.31859649 76.99845474 -29.32885748 76.47607937 -37.0390625 71.390625 C-40.26963787 66.59371005 -39.8968986 61.93371499 -39.1015625 56.328125 C-34.38539555 45.66548669 -21.57321546 38.52860404 -11.1015625 34.328125 C-6.52196788 32.89891531 -1.84337632 32.02953352 2.8984375 31.328125 C3.54835377 21.07166513 3.54835377 21.07166513 -1.1015625 12.328125 C-7.09938845 7.7882686 -11.60345642 6.14717929 -19.1015625 6.140625 C-19.83890625 6.12837891 -20.57625 6.11613281 -21.3359375 6.10351562 C-23.25926308 6.09825105 -25.18210513 6.20609053 -27.1015625 6.328125 C-27.7615625 6.988125 -28.4215625 7.648125 -29.1015625 8.328125 C-32.2265625 8.453125 -32.2265625 8.453125 -35.1015625 8.328125 C-34.3515625 2.578125 -34.3515625 2.578125 -32.1015625 0.328125 C-22.21760912 -3.66206359 -9.68819512 -5.11421453 0 0 Z " transform="translate(458.1015625,557.671875)" style="fill: #080808;"/><path d="M0 0 C2.86724686 0.57344937 3.8614515 0.8614515 6 3 C5.9765625 5.8203125 5.9765625 5.8203125 5.625 9.125 C5.45871094 10.76855469 5.45871094 10.76855469 5.2890625 12.4453125 C5.19367188 13.28835938 5.09828125 14.13140625 5 15 C5.51385254 14.76289307 6.02770508 14.52578613 6.55712891 14.28149414 C8.90973867 13.20103044 11.26725553 12.1317097 13.625 11.0625 C14.83736328 10.50272461 14.83736328 10.50272461 16.07421875 9.93164062 C20.39212965 7.98331498 24.23534794 6.47092491 29 6 C29.75023437 5.92136719 30.50046875 5.84273437 31.2734375 5.76171875 C36.9749627 5.56036377 41.36816934 6.5496521 46 10 C47.67438382 11.9337954 48.76463848 13.73517056 50 16 C54.03350194 15.40919773 56.92294774 14.10143883 60.4375 12.0625 C64.25212473 9.92855105 67.74838521 8.1091169 72 7 C72.69738281 6.81695313 73.39476562 6.63390625 74.11328125 6.4453125 C82.11814603 4.48109358 89.52878433 4.03379909 97 8 C102.19426953 12.46490341 105.52576641 17.22626142 106.2175293 24.18969727 C106.34269594 26.75574256 106.37965797 29.30589801 106.375 31.875 C106.37338867 32.80175537 106.37177734 33.72851074 106.37011719 34.68334961 C106.16116841 46.58216332 102.77570638 56.9971417 98.87890625 68.16796875 C97.68873002 72.00298104 97.00908893 75.85727702 96.39453125 79.8203125 C96 82 96 82 95 84 C91.37 84 87.74 84 84 84 C83.71428571 76.57142857 83.71428571 76.57142857 86 73 C86.66 73 87.32 73 88 73 C88.69088547 70.9273436 89.38139568 68.85456157 90.0703125 66.78125 C90.72561531 64.82084831 91.38771209 62.86271119 92.0546875 60.90625 C92.40789062 59.8646875 92.76109375 58.823125 93.125 57.75 C93.45757813 56.77546875 93.79015625 55.8009375 94.1328125 54.796875 C97.51356204 43.8931963 98.42773875 28.06169837 93.2109375 17.68359375 C90.72697827 14.23008914 87.89341534 13.29780511 84 12 C74.54806788 10.79337037 65.78207986 16.45401607 57.64453125 20.69140625 C55.60713241 22.31261435 55.35857473 23.46856941 55 26 C54.34 26 53.68 26 53 26 C52.01052989 36.76519201 51.69352976 47.51013419 51.4375 58.3125 C51.39418595 60.035815 51.35056819 61.7591224 51.30664062 63.48242188 C51.20093287 67.65486869 51.09930969 71.8273962 51 76 C45.359375 79.1015625 45.359375 79.1015625 42.125 78.1875 C41.42375 77.795625 40.7225 77.40375 40 77 C39.03525051 72.07977762 39.10158508 69.54941576 41 65 C43.30229874 55.05179558 43.29307829 45.13355426 43 35 C42.98195313 33.8553125 42.96390625 32.710625 42.9453125 31.53125 C42.66218015 24.93593176 41.45901512 20.0260575 37 15 C32.66388938 12.10925958 29.09060941 12.32674801 24 13 C16.82190061 15.17954837 8.65743713 18.15086214 4.86328125 25.07421875 C3.64897192 29.1896834 3.75093239 33.04487175 3.8125 37.3125 C3.81531982 38.21806641 3.81813965 39.12363281 3.82104492 40.05664062 C3.86201231 45.23350879 4.06335124 50.37729082 4.40625 55.54296875 C4.47223389 56.61957764 4.53821777 57.69618652 4.60620117 58.80541992 C4.74161252 60.90229269 4.89990249 62.99783857 5.08325195 65.09106445 C5.53823235 72.19603355 5.53823235 72.19603355 2.82421875 76.25 C0 78 0 78 -2.67651367 77.609375 C-3.44326416 77.40828125 -4.21001465 77.2071875 -5 77 C-4.99333817 76.40309357 -4.98667633 75.80618713 -4.97981262 75.19119263 C-4.91359161 68.99486665 -4.86825473 62.79864069 -4.83520508 56.60205078 C-4.82009147 54.28755615 -4.79960004 51.97309026 -4.77368164 49.65869141 C-4.73741159 46.33749304 -4.72029956 43.01667232 -4.70703125 39.6953125 C-4.69154739 38.65569366 -4.67606354 37.61607483 -4.66011047 36.54495239 C-4.65988388 35.58410736 -4.65965729 34.62326233 -4.65942383 33.63330078 C-4.65276199 32.78502716 -4.64610016 31.93675354 -4.63923645 31.06277466 C-4.75828842 30.38205902 -4.87734039 29.70134338 -5 29 C-5.99 28.34 -6.98 27.68 -8 27 C-8.375 24.5625 -8.375 24.5625 -8 22 C-7.48824219 21.57460938 -6.97648437 21.14921875 -6.44921875 20.7109375 C-4.70134399 19.02049093 -4.70134399 19.02049093 -4.99609375 16.22265625 C-5.21458984 14.65837891 -5.21458984 14.65837891 -5.4375 13.0625 C-6.00205041 8.95806594 -6.27040969 6.55554725 -4 3 C-3.01 3 -2.02 3 -1 3 C-0.67 2.01 -0.34 1.02 0 0 Z " transform="translate(506,557)" style="fill: #080808;"/><path d="M0 0 C1.00949707 0.17354004 2.01899414 0.34708008 3.05908203 0.52587891 C10.23336964 1.85836964 10.23336964 1.85836964 12.5 4.125 C12.73046875 6.21875 12.73046875 6.21875 12.6875 8.625 C12.68105469 9.4190625 12.67460937 10.213125 12.66796875 11.03125 C12.5 13.125 12.5 13.125 11.5 15.125 C8.86917793 15.5236094 7.08648061 15.48169777 4.78515625 14.08203125 C3.62183176 13.21399263 2.47352251 12.32534127 1.34375 11.4140625 C-8.01554711 4.87048613 -23.68589434 4.81328955 -34.54736328 6.4296875 C-42.14309462 7.80594203 -48.99739711 9.53058867 -54.90625 14.765625 C-56.5 16.125 -56.5 16.125 -59.625 17.4375 C-67.82716893 22.25181655 -72.06977959 34.21206743 -74.61328125 42.94921875 C-77.63024047 55.71339268 -75.73846267 67.10924822 -69.18359375 78.390625 C-65.37278262 84.07969916 -60.27499261 87.58651905 -54.5 91.125 C-53.49582031 91.74761719 -52.49164063 92.37023437 -51.45703125 93.01171875 C-37.54679471 101.09354923 -22.27652815 103.10714861 -6.5 100.125 C-5.45028863 96.6824262 -5.37088494 93.51467108 -5.3671875 89.92578125 C-5.36589844 88.71599609 -5.36460937 87.50621094 -5.36328125 86.25976562 C-5.36714844 84.99841797 -5.37101562 83.73707031 -5.375 82.4375 C-5.37113281 81.19548828 -5.36726563 79.95347656 -5.36328125 78.67382812 C-5.37027844 72.07197526 -5.6068731 65.66750898 -6.5 59.125 C-2.21 59.125 2.08 59.125 6.5 59.125 C6.335 60.878125 6.17 62.63125 6 64.4375 C5.16701624 75.32578767 4.77265464 86.47360907 6.25 97.3125 C6.87365469 102.63435339 5.29751213 105.63202597 2.5 110.125 C1.50097656 110.11339844 0.50195312 110.10179687 -0.52734375 110.08984375 C-2.46287109 110.07630859 -2.46287109 110.07630859 -4.4375 110.0625 C-5.72527344 110.05089844 -7.01304687 110.03929687 -8.33984375 110.02734375 C-11.36298403 109.75967451 -11.36298403 109.75967451 -12.5 111.125 C-16.03430291 111.37891333 -19.58266874 111.31023797 -23.125 111.3125 C-24.60419922 111.33086914 -24.60419922 111.33086914 -26.11328125 111.34960938 C-31.6813041 111.36076029 -36.23723002 110.93491201 -41.5 109.125 C-42.29664063 108.93679688 -43.09328125 108.74859375 -43.9140625 108.5546875 C-57.95820834 105.03124455 -72.14067747 94.34340009 -80.0625 82.1875 C-87.30360497 68.64513849 -86.77525617 54.19334676 -82.71484375 39.8125 C-81.17912485 35.15102528 -79.12833473 31.23736047 -76.5 27.125 C-76.16226562 26.40828125 -75.82453125 25.6915625 -75.4765625 24.953125 C-74.5 23.125 -74.5 23.125 -72.5 22.125 C-72.06816406 21.3721875 -71.63632812 20.619375 -71.19140625 19.84375 C-64.5358504 9.14567408 -51.16681608 3.47032361 -39.5 0.125 C-38.54480469 -0.184375 -38.54480469 -0.184375 -37.5703125 -0.5 C-25.43151918 -3.90075144 -12.18935912 -2.09662309 0 0 Z " transform="translate(393.5,525.875)" style="fill: #080808;"/><path d="M0 0 C5.21579941 5.21579941 6.25680938 10.47872747 6.6875 17.6875 C6.73455078 18.36361328 6.78160156 19.03972656 6.83007812 19.73632812 C7.133374 24.733252 7.133374 24.733252 6 27 C0.25026516 28.34770957 -5.92234101 28.12774269 -11.796875 28.0625 C-12.59353577 28.05871338 -13.39019653 28.05492676 -14.21099854 28.05102539 C-16.7240578 28.03894308 -19.23699463 28.02030907 -21.75 28 C-25.07812192 27.9733293 -28.40618614 27.95339563 -31.734375 27.9375 C-32.48966492 27.92920166 -33.24495483 27.92090332 -34.02313232 27.91235352 C-37.81524415 27.89474425 -41.31450057 28.07817149 -45 29 C-45 29.66 -45 30.32 -45 31 C-45.66 31 -46.32 31 -47 31 C-46.7434505 33.71037002 -46.47028951 36.41734615 -46.1875 39.125 C-46.11724609 39.88554688 -46.04699219 40.64609375 -45.97460938 41.4296875 C-45.34404528 47.2813223 -44.27719781 51.91389571 -39.765625 56.046875 C-38.93546875 56.60890625 -38.1053125 57.1709375 -37.25 57.75 C-36.02023437 58.60851562 -36.02023437 58.60851562 -34.765625 59.484375 C-27.57678273 63.42402303 -20.78802631 63.30796654 -12.75 63.25 C-11.11804688 63.26160156 -11.11804688 63.26160156 -9.453125 63.2734375 C-7.89078125 63.26957031 -7.89078125 63.26957031 -6.296875 63.265625 C-4.87906738 63.26224121 -4.87906738 63.26224121 -3.43261719 63.25878906 C-0.74169348 63.16259506 -0.74169348 63.16259506 2 61 C3.32 61 4.64 61 6 61 C6.29201904 65.96432365 6.14707573 69.03701574 3 73 C-10.57707995 77.52569332 -28.22729807 72.94951253 -40.75 67.125 C-47.80581266 63.25008649 -51.47110082 58.61556756 -54.26953125 51.03125 C-57.05002558 39.49294197 -55.19890293 27.92573984 -49.6796875 17.5078125 C-46.29258157 12.01070615 -42.11941144 7.89308855 -37 4 C-36.38382813 3.525625 -35.76765625 3.05125 -35.1328125 2.5625 C-24.69258371 -4.71533584 -11.05354134 -6.71497186 0 0 Z " transform="translate(686,563)" style="fill: #0C0C0C;"/><path d="M0 0 C5.06762308 5.36732122 6.05424375 13.89299993 6.1875 21 C6 24 6 24 5 26 C-0.75359176 27.35266065 -6.9197706 27.11728973 -12.796875 27.02734375 C-14.43098758 27.01471184 -16.06510226 27.00234985 -17.69921875 26.99023438 C-20.23590911 26.96534553 -22.77248573 26.93720611 -25.30908203 26.90405273 C-27.78418694 26.87382208 -30.25914433 26.85608307 -32.734375 26.83984375 C-33.48966492 26.82638412 -34.24495483 26.8129245 -35.02313232 26.79905701 C-39.11772894 26.77960834 -42.38989214 26.98384088 -46 29 C-49.02478458 33.53717687 -48.37614562 37.58582902 -47.5703125 42.7578125 C-46.05817049 49.60912258 -43.90770269 53.22834684 -38 57 C-37.41734375 57.38800781 -36.8346875 57.77601563 -36.234375 58.17578125 C-26.0349279 64.49300637 -13.51090868 64.06107487 -2 62 C-1.01 61.34 -0.02 60.68 1 60 C3.1875 60.375 3.1875 60.375 5 61 C4.63362069 68.32758621 4.63362069 68.32758621 1.89453125 71.234375 C-6.51727873 76.36546557 -20.18306155 72.80315296 -29.32568359 70.76660156 C-39.31141751 68.34269994 -47.21002902 64.87693163 -53 56 C-55.89858942 50.46138078 -56.51589457 45.96059229 -56.4375 39.75 C-56.42992676 38.91098145 -56.42235352 38.07196289 -56.41455078 37.20751953 C-56.1112038 25.74454651 -51.93560102 15.9888829 -43.82421875 7.8046875 C-41.60730103 5.78524313 -39.33790812 3.8771525 -37 2 C-36.0925 1.236875 -35.185 0.47375 -34.25 -0.3125 C-23.04425278 -6.13086875 -10.57836739 -7.38985239 0 0 Z " transform="translate(899,370)" style="fill: #090909;"/><path d="M0 0 C5.06762308 5.36732122 6.05424375 13.89299993 6.1875 21 C6 24 6 24 5 26 C-0.75359176 27.35266065 -6.9197706 27.11728973 -12.796875 27.02734375 C-14.43098758 27.01471184 -16.06510226 27.00234985 -17.69921875 26.99023438 C-20.23590911 26.96534553 -22.77248573 26.93720611 -25.30908203 26.90405273 C-27.78418694 26.87382208 -30.25914433 26.85608307 -32.734375 26.83984375 C-33.48966492 26.82638412 -34.24495483 26.8129245 -35.02313232 26.79905701 C-39.11772894 26.77960834 -42.38989214 26.98384088 -46 29 C-49.02478458 33.53717687 -48.37614562 37.58582902 -47.5703125 42.7578125 C-46.05817049 49.60912258 -43.90770269 53.22834684 -38 57 C-37.41734375 57.38800781 -36.8346875 57.77601563 -36.234375 58.17578125 C-26.0349279 64.49300637 -13.51090868 64.06107487 -2 62 C-1.01 61.34 -0.02 60.68 1 60 C3.1875 60.375 3.1875 60.375 5 61 C4.63362069 68.32758621 4.63362069 68.32758621 1.89453125 71.234375 C-6.51727873 76.36546557 -20.18306155 72.80315296 -29.32568359 70.76660156 C-39.31141751 68.34269994 -47.21002902 64.87693163 -53 56 C-55.89858942 50.46138078 -56.51589457 45.96059229 -56.4375 39.75 C-56.42992676 38.91098145 -56.42235352 38.07196289 -56.41455078 37.20751953 C-56.1112038 25.74454651 -51.93560102 15.9888829 -43.82421875 7.8046875 C-41.60730103 5.78524313 -39.33790812 3.8771525 -37 2 C-36.0925 1.236875 -35.185 0.47375 -34.25 -0.3125 C-23.04425278 -6.13086875 -10.57836739 -7.38985239 0 0 Z " transform="translate(284,370)" style="fill: #090909;"/><path d="M0 0 C0.495 0.495 0.495 0.495 1 1 C0.52291626 7.12805835 -1.38474356 12.65177518 -3.375 18.4375 C-3.67921875 19.34048828 -3.9834375 20.24347656 -4.296875 21.17382812 C-5.64686172 25.15744279 -7.03204885 29.11013828 -8.57421875 33.0234375 C-10.32493243 37.63625334 -11.36086177 42.38100102 -12.4375 47.1875 C-17.85282175 70.48868103 -17.85282175 70.48868103 -23 76 C-25.625 76.5 -25.625 76.5 -28 76 C-30.01146979 72.98279532 -30.69946778 70.83177573 -31.6484375 67.3671875 C-34.17820049 58.91510634 -37.87904864 51.09541319 -41.625 43.125 C-42.65121685 40.93218759 -43.67483399 38.73827995 -44.69247437 36.54147339 C-45.3194158 35.18887339 -45.95124884 33.83852489 -46.58901978 32.49099731 C-48.50098912 28.37620441 -49.85941428 24.37306617 -51 20 C-52.92696457 19.94257398 -52.92696457 19.94257398 -55 21 C-56.27418289 23.4184118 -57.21357601 25.62926981 -58.125 28.1875 C-58.40996338 28.95328369 -58.69492676 29.71906738 -58.98852539 30.50805664 C-61.95042812 38.59863359 -64.69014749 46.77192723 -67.4375 54.9375 C-67.66463684 55.61042084 -67.89177368 56.28334167 -68.12579346 56.97665405 C-68.77550653 58.90845386 -69.41829737 60.84240502 -70.05859375 62.77734375 C-70.43298584 63.90390381 -70.80737793 65.03046387 -71.19311523 66.19116211 C-72.13805002 68.99349175 -72.13805002 68.99349175 -72 72 C-76.77880621 74.34255206 -78.73655732 75.18607456 -84 74 C-84.10022461 73.30140869 -84.20044922 72.60281738 -84.30371094 71.88305664 C-86.29964023 58.10503451 -88.342424 44.44563779 -92 31 C-92.20270508 30.25331055 -92.40541016 29.50662109 -92.61425781 28.73730469 C-93.25048498 26.42506787 -93.90186623 24.11787547 -94.5625 21.8125 C-94.76029053 21.11697021 -94.95808105 20.42144043 -95.16186523 19.70483398 C-96.39339898 15.54910588 -98.03879875 11.8541868 -100 8 C-100 5.8125 -100 5.8125 -99 4 C-95.04913081 0.74634302 -91.97038586 0.88304974 -87 1 C-86.96132813 2.41925781 -86.96132813 2.41925781 -86.921875 3.8671875 C-86.35457454 18.63023653 -82.99831624 32.46419625 -78.57519531 46.51928711 C-77.52949391 49.8882678 -77 52.42792286 -77 56 C-76.34 56 -75.68 56 -75 56 C-74.65066406 54.86433594 -74.30132812 53.72867188 -73.94140625 52.55859375 C-72.40855679 47.95644502 -70.59357508 43.50357467 -68.71484375 39.03515625 C-68.2601622 37.95118057 -68.2601622 37.95118057 -67.79629517 36.8453064 C-66.52613235 33.82304965 -65.25275097 30.80226461 -63.9675293 27.78637695 C-59.11706201 16.61140266 -59.11706201 16.61140266 -56.38891602 4.78295898 C-56 3 -56 3 -54 1 C-51.5625 0.5625 -51.5625 0.5625 -49 1 C-46.58871236 3.76851544 -45.87197315 6.4145475 -45.2421875 9.9296875 C-43.92537635 16.03019292 -41.37691903 21.52272332 -38.8125 27.1875 C-38.31927246 28.28723145 -37.82604492 29.38696289 -37.31787109 30.52001953 C-35.89029881 33.68550591 -34.4476733 36.84366588 -33 40 C-32.44626709 41.22275635 -32.44626709 41.22275635 -31.88134766 42.47021484 C-30.98063586 44.44768058 -30.05979505 46.41346726 -29.125 48.375 C-28.63257813 49.41398437 -28.14015625 50.45296875 -27.6328125 51.5234375 C-25.76682094 54.3536735 -24.00673553 55.5017284 -21 57 C-20.74347656 55.77925781 -20.48695313 54.55851562 -20.22265625 53.30078125 C-18.86598217 47.19634552 -17.14795031 41.20052636 -15.4375 35.1875 C-14.81074209 32.9727852 -14.18442133 30.75794662 -13.55859375 28.54296875 C-13.28329834 27.57383545 -13.00800293 26.60470215 -12.72436523 25.60620117 C-11.60246953 21.56972103 -10.86230284 18.14660699 -10.875 13.9375 C-10.87242187 13.08027344 -10.86984375 12.22304688 -10.8671875 11.33984375 C-10.90634865 8.84435799 -10.90634865 8.84435799 -12 6 C-10.71794688 3.23346432 -9.59483888 1.43621518 -7.125 -0.375 C-4.41611843 -1.17172987 -2.68146607 -0.79719262 0 0 Z " transform="translate(400,367)" style="fill: #080808;"/><path d="M0 0 C-0.33 4.29 -0.66 8.58 -1 13 C7.44265372 11.95515387 7.44265372 11.95515387 15.25 8.875 C22.152652 5.51831731 31.27361739 5.87801006 38.6328125 7.625 C43.91912371 9.87620478 46.57473141 13.93087639 49 19 C54.16068085 34.48204256 49.72182837 54.30596612 45.53955078 69.57519531 C44.78067589 72.98566835 44.57281419 76.38145216 44.42163086 79.86669922 C43.89927849 82.50961467 43.1599066 83.41909226 41 85 C36.63293092 85.38991688 34.69486103 85.46324069 31 83 C30.5625 80.1875 30.5625 80.1875 31 77 C32.27358732 75.28724465 33.61423077 73.62332967 35 72 C39.5530466 63.07602866 41.5127281 52.95215948 42 43 C42.05285156 41.94554687 42.10570312 40.89109375 42.16015625 39.8046875 C42.38143912 31.51139052 41.96685307 24.6695288 36.625 18.0625 C30.34499274 13.12820858 23.70214197 13.26081339 16 14 C9.98844288 15.62593285 6.21222787 18.42672403 2 23 C0.686932 23.70574404 -0.64417409 24.38035629 -2 25 C-2.02470935 30.21443333 -2.04286444 35.42883261 -2.05493164 40.64331055 C-2.059962 42.41740513 -2.06678699 44.19149556 -2.07543945 45.96557617 C-2.08756174 48.51482161 -2.09324126 51.06401226 -2.09765625 53.61328125 C-2.10281754 54.40712723 -2.10797882 55.20097321 -2.11329651 56.01887512 C-2.11362877 59.27656286 -2.03772826 61.88681521 -1 65 C-0.44089457 71.15015974 -0.44089457 71.15015974 -2.5625 74.375 C-5.74873203 76.49915469 -8.19634586 76.8616853 -12 77 C-12.99 76.34 -13.98 75.68 -15 75 C-14.54158936 72.16738282 -14.07474033 69.34891532 -13.47363281 66.54272461 C-11.58972415 57.21242837 -11.69682001 47.90091957 -11.73925781 38.42504883 C-11.75006858 35.544224 -11.73926512 32.66401015 -11.7265625 29.78320312 C-11.72788265 27.9401028 -11.73044204 26.09700285 -11.734375 24.25390625 C-11.73032654 23.3986586 -11.72627808 22.54341095 -11.72210693 21.6622467 C-11.75653478 17.28383294 -12.06930244 14.01813249 -14 10 C-14 8 -14 8 -13 6 C-4.40625 -2.203125 -4.40625 -2.203125 0 0 Z " transform="translate(598,364)" style="fill: #080808;"/><path d="M0 0 C-0.33 4.62 -0.66 9.24 -1 14 C-0.01 14.33 0.98 14.66 2 15 C2.33 14.34 2.66 13.68 3 13 C5.66529272 12.38702808 8.33559546 12.04163292 11.04296875 11.66015625 C14.08482866 11.12027849 14.08482866 11.12027849 16.87109375 9.4609375 C20.60348699 7.71822205 23.83470056 7.50131955 27.875 7.5625 C28.58245361 7.57152344 29.28990723 7.58054687 30.01879883 7.58984375 C35.44813305 7.77009139 39.89250552 8.27725816 44 12 C51.55074064 21.17015014 51.8831774 31.62222416 51 43 C50.04507844 51.06147548 48.55819194 59.03649773 47 67 C46.81856445 67.928125 46.63712891 68.85625 46.45019531 69.8125 C45.94235768 72.35816332 45.41570173 74.8986314 44.875 77.4375 C44.63765137 78.57336548 44.63765137 78.57336548 44.39550781 79.73217773 C43.99787746 81.5046338 43.50804912 83.25598266 43 85 C39.98131566 86.50934217 37.32702771 86.17510672 34 86 C33.01 85.34 32.02 84.68 31 84 C30.44583447 81.02136027 30.40652826 78.97092886 32.01953125 76.33203125 C32.85333787 75.23120499 33.71656157 74.15177474 34.61328125 73.1015625 C42.43456124 61.24846775 44.1282126 40.98751621 41.49609375 27.3984375 C40.0301098 22.92509218 37.62106171 19.93133567 34 17 C27.22818191 13.73563641 19.67928974 13.72672728 12.625 16.16796875 C7.09873696 18.80242503 3.76906779 21.15876851 0 26 C-0.66 26 -1.32 26 -2 26 C-2.02470935 31.21443333 -2.04286444 36.42883261 -2.05493164 41.64331055 C-2.059962 43.41740513 -2.06678699 45.19149556 -2.07543945 46.96557617 C-2.08756174 49.51482161 -2.09324126 52.06401226 -2.09765625 54.61328125 C-2.10281754 55.40712723 -2.10797882 56.20097321 -2.11329651 57.01887512 C-2.11362877 60.27656286 -2.03772826 62.88681521 -1 66 C-0.66622978 68.7139349 -0.59845203 71.29096509 -1 74 C-3.14153229 76.55336542 -4.79263353 76.94383825 -8 77.8125 C-11.12469007 78.00779313 -12.42183113 77.6857258 -15 76 C-14.51833244 73.5658586 -14.02952473 71.13516792 -13.5 68.7109375 C-11.27623206 58.32177165 -10.83614471 48.03851773 -10.875 37.4375 C-10.86919922 35.84905273 -10.86919922 35.84905273 -10.86328125 34.22851562 C-10.57931461 22.23275389 -10.57931461 22.23275389 -14 11 C-14 9.0625 -14 9.0625 -13 7 C-9.27178286 3.44124728 -5.4404265 0 0 0 Z " transform="translate(773,363)" style="fill: #070707;"/><path d="M0 0 C2.875 0.625 2.875 0.625 4.8125 2.3125 C6.16435942 5.25478228 5.88785013 6.58644962 4.875 9.625 C3.885 11.11 3.885 11.11 2.875 12.625 C2.5722199 14.72323658 2.5722199 14.72323658 2.61430359 17.06326294 C2.60721878 17.97152328 2.60013397 18.87978363 2.59283447 19.81556702 C2.5965506 21.30702492 2.5965506 21.30702492 2.6003418 22.82861328 C2.59523087 23.87773392 2.59011993 24.92685455 2.58485413 26.00776672 C2.57091946 29.48700622 2.57191854 32.96604835 2.57421875 36.4453125 C2.57033252 38.86327183 2.565998 41.28123047 2.56123352 43.69918823 C2.55376193 48.77506722 2.55406836 53.85087669 2.55932617 58.92675781 C2.56510666 65.41986596 2.54822853 71.91268756 2.5249815 78.40574837 C2.51021721 83.40387629 2.50937641 88.40193576 2.51249123 93.40008163 C2.51197887 95.7929834 2.50675716 98.18588908 2.49667931 100.57876968 C2.48428731 103.93437263 2.49112481 107.28942482 2.50268555 110.64501953 C2.49504181 111.62717941 2.48739807 112.60933929 2.47952271 113.6212616 C2.52132118 119.1344288 3.21890802 123.60563173 5.26235676 128.74319267 C6.08785802 131.27881899 5.75644973 133.14091439 4.875 135.625 C-3.03409091 138.26136364 -3.03409091 138.26136364 -7.125 136.625 C-8.92138767 134.12545382 -9.14134527 132.82578422 -8.8894043 129.73095703 C-8.68226807 128.58481934 -8.47513184 127.43868164 -8.26171875 126.2578125 C-6.81041923 117.04504172 -6.86064137 107.91092918 -6.91836548 98.60388184 C-6.93799446 95.41979136 -6.94280211 92.23590409 -6.94604492 89.05175781 C-6.9762912 77.06572976 -7.16208463 65.08879488 -7.47666359 53.10741043 C-7.53098341 51.00251789 -7.5821045 48.8975737 -7.63200378 46.79257202 C-7.64841321 46.1024962 -7.66482264 45.41242039 -7.68172932 44.70143318 C-7.71463983 43.31524037 -7.74741059 41.92904423 -7.78003979 40.54284477 C-7.86254138 37.12651312 -7.95654402 33.71115338 -8.0741272 30.2958374 C-8.20303862 26.46310563 -8.30142427 22.6306186 -8.39453125 18.796875 C-8.44222656 17.65217743 -8.48992188 16.50747986 -8.5390625 15.32809448 C-8.70641503 6.61526229 -8.70641503 6.61526229 -5.8034668 2.90332031 C-3.125 0.625 -3.125 0.625 0 0 Z " transform="translate(684.125,303.375)" style="fill: #030303;"/><path d="M0 0 C3.21291011 2.45988431 3.84797144 4.97923681 4.4375 8.9375 C4.34442501 15.16022773 0.74331465 22.20168155 -3.55859375 26.58984375 C-5.0625 27.625 -5.0625 27.625 -8 29 C-8.763125 29.4125 -9.52625 29.825 -10.3125 30.25 C-15.09012845 31.58329166 -19.6151236 32.0374419 -24.25390625 30.01953125 C-27.74714012 27.9287375 -31.27287046 25.77809588 -33 22 C-33.59154884 17.99061343 -33.917474 15.54135632 -31.828125 12.03125 C-24.46050544 3.06857878 -11.55925608 -2.16736051 0 0 Z " transform="translate(459,597)" style="fill: #FAFAFA;"/><path d="M0 0 C0.22825022 7.77318811 -0.05929215 15.23292464 -1 22.9375 C-1.86563736 30.30146036 -2.22109074 37.5853768 -2.25 45 C-2.25902344 45.93062256 -2.26804687 46.86124512 -2.27734375 47.82006836 C-2.24579182 55.20387705 -1.72068609 62.74760379 1.07324219 69.65234375 C2.24097315 72.61043146 2.19285896 74.05761456 1 77 C-3.08346261 79.59856711 -7.32500477 79.23374976 -12 79 C-13 78 -13 78 -13.1875 74.75 C-13 71 -13 71 -12.00268555 68.79638672 C-10.65357737 65.03386297 -10.73320946 61.45169233 -10.76953125 57.5078125 C-10.76998947 56.68481659 -10.77044769 55.86182068 -10.7709198 55.0138855 C-10.77393573 53.27063558 -10.78180231 51.5273882 -10.79418945 49.78417969 C-10.81220034 47.16851794 -10.81470045 44.55321672 -10.81445312 41.9375 C-9.83942148 25.534485 -9.83942148 25.534485 -13 10 C-13.4375 7.125 -13.4375 7.125 -13 4 C-8.77308371 0.5245355 -5.3815683 -1.67014189 0 0 Z " transform="translate(730,364)" style="fill: #060606;"/><path d="M0 0 C3.18879522 1.46720077 5.32586966 2.89638852 7.66796875 5.53125 C9.06383053 9.3698699 9.00250938 12.19985435 8.66796875 16.28125 C3.57050377 21.37871498 -9.3293537 19.33252998 -16.18334961 19.34716797 C-21.23304743 19.34218132 -26.28248025 19.31961596 -31.33203125 19.28125 C-31.33203125 13.86936877 -26.90719456 10.07433924 -23.33203125 6.28125 C-16.05736655 0.51685642 -9.37014769 -2.88795172 0 0 Z " transform="translate(886.33203125,371.71875)" style="fill: #FAFAFA;"/><path d="M0 0 C3.18879522 1.46720077 5.32586966 2.89638852 7.66796875 5.53125 C9.06383053 9.3698699 9.00250938 12.19985435 8.66796875 16.28125 C3.57050377 21.37871498 -9.3293537 19.33252998 -16.18334961 19.34716797 C-21.23304743 19.34218132 -26.28248025 19.31961596 -31.33203125 19.28125 C-31.33203125 13.86936877 -26.90719456 10.07433924 -23.33203125 6.28125 C-16.05736655 0.51685642 -9.37014769 -2.88795172 0 0 Z " transform="translate(271.33203125,371.71875)" style="fill: #FAFAFA;"/><path d="M0 0 C2.7957625 2.36564519 3.8948614 3.8762235 4.23828125 7.546875 C4.24886765 10.04526433 4.17418402 12.50820084 4 15 C0.88945662 16.55527169 -2.45276685 16.38650976 -5.875 16.5625 C-6.65987793 16.6049585 -7.44475586 16.64741699 -8.25341797 16.69116211 C-17.50006406 17.14339426 -26.74530209 17.08694393 -36 17 C-35.17107835 12.98895202 -33.53823508 11.02828181 -30.75 8 C-29.59757813 6.7315625 -29.59757813 6.7315625 -28.421875 5.4375 C-20.10903733 -2.92896888 -10.7627696 -6.00231382 0 0 Z " transform="translate(679,568)" style="fill: #FCFCFC;"/><path d="M0 0 C4.24465971 0.27682563 6.81617671 1.18354094 10 4 C9.63088042 6.67611698 9.15144437 7.8431469 7.25 9.8125 C5 11 5 11 2.5 10.9375 C-0.45353321 9.82992505 -1.94563102 8.35871993 -4 6 C-2.84826645 3.53199953 -1.95216435 1.95216435 0 0 Z " transform="translate(726,339)" style="fill: #0D0D0D;"/></svg>