<svg id="svg" version="1.1" xmlns="http://www.w3.org/2000/svg" viewBox="0 0 256 256" style="display: block;"><path d="M0 0 C84.48 0 168.96 0 256 0 C256 84.48 256 168.96 256 256 C171.52 256 87.04 256 0 256 C0 171.52 0 87.04 0 0 Z " transform="translate(0,0)" style="fill: #FEFEFE;"/><path d="M0 0 C0.71353638 -0.00761353 1.42707275 -0.01522705 2.16223145 -0.02307129 C3.66492223 -0.0338359 5.1676876 -0.03674021 6.67041016 -0.03222656 C8.96253494 -0.03125264 11.25132545 -0.07293779 13.54296875 -0.1171875 C15.00780556 -0.12239417 16.47265394 -0.1250827 17.9375 -0.125 C18.61784302 -0.14139526 19.29818604 -0.15779053 19.99914551 -0.17468262 C23.79894891 -0.11979208 25.34821398 0.36922713 28.31445312 2.81835938 C31.31076243 6.50466193 32.73089501 8.42474731 32.59375 13.15625 C32.57570313 13.96449219 32.55765625 14.77273437 32.5390625 15.60546875 C32.51585937 16.22035156 32.49265625 16.83523437 32.46875 17.46875 C33.68457764 17.44256592 34.90040527 17.41638184 36.15307617 17.3894043 C40.67225681 17.2987724 45.19135744 17.24145352 49.71118164 17.1940918 C51.66574623 17.16897719 53.62021717 17.13487869 55.57446289 17.09155273 C58.38711668 17.03076566 61.19852702 17.00251017 64.01171875 16.98046875 C64.88273727 16.95466232 65.7537558 16.9288559 66.65116882 16.90226746 C71.04424157 16.90024537 72.90430986 17.04803138 76.52929688 19.75 C78.39742086 22.3687599 79.08392863 23.33535582 78.95703125 26.45703125 C78.94091797 27.16279297 78.92480469 27.86855469 78.90820312 28.59570312 C78.86630859 29.31693359 78.82441406 30.03816406 78.78125 30.78125 C78.74741211 31.89209961 78.74741211 31.89209961 78.71289062 33.02539062 C78.6543315 34.84072357 78.56465886 36.65500681 78.46875 38.46875 C75.49875 38.46875 72.52875 38.46875 69.46875 38.46875 C69.47595062 39.13119217 69.48315125 39.79363434 69.49057007 40.47615051 C69.66030846 58.75037295 69.08391781 76.91107387 68.09375 95.15625 C67.95349142 97.80020081 67.81343778 100.44416251 67.67358398 103.08813477 C67.40010315 108.23282546 67.12161861 113.3772152 66.84033203 118.52148438 C66.56311133 123.63097413 66.30868474 128.74084823 66.0769043 133.85258484 C65.93840272 136.87361271 65.78624745 139.89382355 65.62982178 142.91397095 C65.53442502 144.84207814 65.45660599 146.77103016 65.37939453 148.69995117 C64.93843135 156.65160546 64.93843135 156.65160546 62.65234375 160.62890625 C59.32931861 163.42880757 56.69999925 164.71544588 52.33888245 164.73617554 C51.52443665 164.74470551 50.70999084 164.75323547 49.87086487 164.76202393 C48.98607956 164.76111755 48.10129425 164.76021118 47.18969727 164.75927734 C45.78172379 164.76935318 45.78172379 164.76935318 44.3453064 164.77963257 C41.24186921 164.7986335 38.13864799 164.80253766 35.03515625 164.8046875 C32.87808645 164.81111335 30.72101754 164.81784155 28.56394958 164.82485962 C24.04220559 164.83683719 19.52053804 164.84053988 14.9987793 164.83935547 C9.20359994 164.83915211 3.40891006 164.86646943 -2.38615322 164.90089989 C-6.84111281 164.92313096 -11.29595383 164.92719419 -15.75096321 164.92613602 C-17.88761141 164.92849711 -20.02426262 164.93734911 -22.16085625 164.95280075 C-25.14852133 164.9723861 -28.13512067 164.96665204 -31.12280273 164.95458984 C-32.00556381 164.96582886 -32.88832489 164.97706787 -33.7978363 164.98864746 C-37.90770756 164.94646091 -39.99262826 164.81082027 -43.53930664 162.55838013 C-47.00512388 158.92259597 -47.77155635 156.15201016 -48.05859375 151.1875 C-48.1270752 150.06553223 -48.19555664 148.94356445 -48.26611328 147.78759766 C-48.3329834 146.52737793 -48.39985352 145.2671582 -48.46875 143.96875 C-48.54627693 142.6059322 -48.62425809 141.24314018 -48.70263672 139.88037109 C-48.93619664 135.75066925 -49.15435974 131.62023547 -49.37115479 127.48962402 C-49.54761965 124.15986723 -49.72933992 120.83041991 -49.91162109 117.50097656 C-50.26567531 111.01759868 -50.61007052 104.5337586 -50.94876099 98.04956055 C-51.08509462 95.45033851 -51.22328264 92.85121296 -51.36349487 90.25219727 C-52.28945862 72.97497705 -52.72823175 55.77091055 -52.53125 38.46875 C-55.50125 38.46875 -58.47125 38.46875 -61.53125 38.46875 C-61.63979617 36.07168877 -61.71878157 33.67959162 -61.78125 31.28125 C-61.81476562 30.60771484 -61.84828125 29.93417969 -61.8828125 29.24023438 C-61.95426429 25.57833025 -61.64659178 23.64724378 -59.640625 20.54296875 C-55.68679581 16.65503671 -51.84304126 17.33971217 -46.5859375 17.37109375 C-45.25841965 17.37321617 -45.25841965 17.37321617 -43.90408325 17.37538147 C-41.07143809 17.3809886 -38.23887136 17.39354229 -35.40625 17.40625 C-33.48828239 17.41126408 -31.57031354 17.41582715 -29.65234375 17.41992188 C-24.94528218 17.43096034 -20.2382794 17.44822975 -15.53125 17.46875 C-15.55191528 16.54425049 -15.55191528 16.54425049 -15.57299805 15.60107422 C-15.58371338 14.7917041 -15.59442871 13.98233398 -15.60546875 13.1484375 C-15.62613403 11.94550049 -15.62613403 11.94550049 -15.6472168 10.71826172 C-15.48409353 7.55401383 -14.57480359 5.86464041 -12.53125 3.46875 C-8.46317671 0.42418467 -4.93871738 0.00146211 0 0 Z " transform="translate(117.53125,43.53125)" style="fill: #FCFCFC;"/><path d="M0 0 C0.71353638 -0.00761353 1.42707275 -0.01522705 2.16223145 -0.02307129 C3.66492223 -0.0338359 5.1676876 -0.03674021 6.67041016 -0.03222656 C8.96253494 -0.03125264 11.25132545 -0.07293779 13.54296875 -0.1171875 C15.00780556 -0.12239417 16.47265394 -0.1250827 17.9375 -0.125 C18.61784302 -0.14139526 19.29818604 -0.15779053 19.99914551 -0.17468262 C23.79894891 -0.11979208 25.34821398 0.36922713 28.31445312 2.81835938 C31.31076243 6.50466193 32.73089501 8.42474731 32.59375 13.15625 C32.57570313 13.96449219 32.55765625 14.77273437 32.5390625 15.60546875 C32.51585937 16.22035156 32.49265625 16.83523437 32.46875 17.46875 C33.68457764 17.44256592 34.90040527 17.41638184 36.15307617 17.3894043 C40.67225681 17.2987724 45.19135744 17.24145352 49.71118164 17.1940918 C51.66574623 17.16897719 53.62021717 17.13487869 55.57446289 17.09155273 C58.38711668 17.03076566 61.19852702 17.00251017 64.01171875 16.98046875 C64.88273727 16.95466232 65.7537558 16.9288559 66.65116882 16.90226746 C71.04424157 16.90024537 72.90430986 17.04803138 76.52929688 19.75 C78.39742086 22.3687599 79.08392863 23.33535582 78.95703125 26.45703125 C78.94091797 27.16279297 78.92480469 27.86855469 78.90820312 28.59570312 C78.86630859 29.31693359 78.82441406 30.03816406 78.78125 30.78125 C78.74741211 31.89209961 78.74741211 31.89209961 78.71289062 33.02539062 C78.6543315 34.84072357 78.56465886 36.65500681 78.46875 38.46875 C75.49875 38.46875 72.52875 38.46875 69.46875 38.46875 C69.47595062 39.13119217 69.48315125 39.79363434 69.49057007 40.47615051 C69.66030846 58.75037295 69.08391781 76.91107387 68.09375 95.15625 C67.95349142 97.80020081 67.81343778 100.44416251 67.67358398 103.08813477 C67.40010315 108.23282546 67.12161861 113.3772152 66.84033203 118.52148438 C66.56311133 123.63097413 66.30868474 128.74084823 66.0769043 133.85258484 C65.93840272 136.87361271 65.78624745 139.89382355 65.62982178 142.91397095 C65.53442502 144.84207814 65.45660599 146.77103016 65.37939453 148.69995117 C64.93843135 156.65160546 64.93843135 156.65160546 62.65234375 160.62890625 C59.32931861 163.42880757 56.69999925 164.71544588 52.33888245 164.73617554 C51.52443665 164.74470551 50.70999084 164.75323547 49.87086487 164.76202393 C48.98607956 164.76111755 48.10129425 164.76021118 47.18969727 164.75927734 C45.78172379 164.76935318 45.78172379 164.76935318 44.3453064 164.77963257 C41.24186921 164.7986335 38.13864799 164.80253766 35.03515625 164.8046875 C32.87808645 164.81111335 30.72101754 164.81784155 28.56394958 164.82485962 C24.04220559 164.83683719 19.52053804 164.84053988 14.9987793 164.83935547 C9.20359994 164.83915211 3.40891006 164.86646943 -2.38615322 164.90089989 C-6.84111281 164.92313096 -11.29595383 164.92719419 -15.75096321 164.92613602 C-17.88761141 164.92849711 -20.02426262 164.93734911 -22.16085625 164.95280075 C-25.14852133 164.9723861 -28.13512067 164.96665204 -31.12280273 164.95458984 C-32.00556381 164.96582886 -32.88832489 164.97706787 -33.7978363 164.98864746 C-37.90770756 164.94646091 -39.99262826 164.81082027 -43.53930664 162.55838013 C-47.00512388 158.92259597 -47.77155635 156.15201016 -48.05859375 151.1875 C-48.1270752 150.06553223 -48.19555664 148.94356445 -48.26611328 147.78759766 C-48.3329834 146.52737793 -48.39985352 145.2671582 -48.46875 143.96875 C-48.54627693 142.6059322 -48.62425809 141.24314018 -48.70263672 139.88037109 C-48.93619664 135.75066925 -49.15435974 131.62023547 -49.37115479 127.48962402 C-49.54761965 124.15986723 -49.72933992 120.83041991 -49.91162109 117.50097656 C-50.26567531 111.01759868 -50.61007052 104.5337586 -50.94876099 98.04956055 C-51.08509462 95.45033851 -51.22328264 92.85121296 -51.36349487 90.25219727 C-52.28945862 72.97497705 -52.72823175 55.77091055 -52.53125 38.46875 C-55.50125 38.46875 -58.47125 38.46875 -61.53125 38.46875 C-61.63979617 36.07168877 -61.71878157 33.67959162 -61.78125 31.28125 C-61.81476562 30.60771484 -61.84828125 29.93417969 -61.8828125 29.24023438 C-61.95426429 25.57833025 -61.64659178 23.64724378 -59.640625 20.54296875 C-55.68679581 16.65503671 -51.84304126 17.33971217 -46.5859375 17.37109375 C-45.25841965 17.37321617 -45.25841965 17.37321617 -43.90408325 17.37538147 C-41.07143809 17.3809886 -38.23887136 17.39354229 -35.40625 17.40625 C-33.48828239 17.41126408 -31.57031354 17.41582715 -29.65234375 17.41992188 C-24.94528218 17.43096034 -20.2382794 17.44822975 -15.53125 17.46875 C-15.55191528 16.54425049 -15.55191528 16.54425049 -15.57299805 15.60107422 C-15.58371338 14.7917041 -15.59442871 13.98233398 -15.60546875 13.1484375 C-15.62613403 11.94550049 -15.62613403 11.94550049 -15.6472168 10.71826172 C-15.48409353 7.55401383 -14.57480359 5.86464041 -12.53125 3.46875 C-8.46317671 0.42418467 -4.93871738 0.00146211 0 0 Z M-48.53125 38.46875 C-48.5671987 52.97652981 -48.5671987 52.97652981 -48.10400391 67.44482422 C-48.05844864 68.39687744 -48.01289337 69.34893066 -47.96595764 70.32983398 C-47.81792754 73.39461966 -47.6633458 76.45902413 -47.5078125 79.5234375 C-47.40036791 81.68530622 -47.29306053 83.84718177 -47.18588257 86.00906372 C-46.96209392 90.49856102 -46.73463989 94.98785518 -46.50488281 99.47705078 C-46.21099298 105.2309316 -45.92962588 110.98535316 -45.65126991 116.74000359 C-45.43432834 121.18575492 -45.20928288 125.6310686 -44.98191452 130.07629776 C-44.87458774 132.19965435 -44.77015701 134.32315939 -44.66868973 136.44680405 C-44.52670366 139.39977365 -44.37344024 142.3519497 -44.21728516 145.30419922 C-44.17772202 146.17791168 -44.13815887 147.05162415 -44.09739685 147.95181274 C-44.05257675 148.75588562 -44.00775665 149.5599585 -43.96157837 150.38839722 C-43.92655024 151.08401701 -43.8915221 151.7796368 -43.85543251 152.49633598 C-43.48093997 154.77484983 -42.65059883 156.46152562 -41.53125 158.46875 C-40.87125 158.46875 -40.21125 158.46875 -39.53125 158.46875 C-39.53125 159.12875 -39.53125 159.78875 -39.53125 160.46875 C-27.06628046 160.56132218 -14.60139234 160.63245009 -2.13614941 160.67599869 C3.65162588 160.69689706 9.43916646 160.72525604 15.22680664 160.77050781 C20.80944318 160.81388488 26.39185359 160.83787014 31.97464561 160.84825897 C34.10738372 160.85566496 36.24010908 160.87012665 38.37275124 160.89167023 C41.35400013 160.92059572 44.3343078 160.92471052 47.31567383 160.92285156 C48.2025589 160.93723267 49.08944397 160.95161377 50.00320435 160.96643066 C54.68965542 161.05577381 54.68965542 161.05577381 58.47831726 158.62786865 C60.63102618 153.93501693 60.79197168 149.47836266 61.04125977 144.40185547 C61.11463058 143.00838394 61.11463058 143.00838394 61.18948364 141.58676147 C61.35064251 138.50335786 61.5055869 135.41967798 61.66015625 132.3359375 C61.77058419 130.18375415 61.88125988 128.03158349 61.99217224 125.87942505 C62.22434644 121.35513633 62.45344407 116.83070474 62.68041992 112.30615234 C62.96936545 106.55125333 63.26588401 100.79677545 63.56480503 95.04238701 C63.79531354 90.58797933 64.02163818 86.13336617 64.24677849 81.67868423 C64.35433834 79.56027867 64.4631577 77.44193663 64.57333565 75.32366562 C64.72833042 72.33169643 64.87763205 69.33949022 65.02563477 66.34716797 C65.07081741 65.49662842 65.11600006 64.64608887 65.16255188 63.76977539 C65.56985341 55.31185729 65.46875 46.97393528 65.46875 38.46875 C27.84875 38.46875 -9.77125 38.46875 -48.53125 38.46875 Z " transform="translate(117.53125,43.53125)" style="fill: #090909;"/><path d="M0 0 C1.60908234 -0.00412399 1.60908234 -0.00412399 3.25067139 -0.0083313 C5.01580833 0.00245453 5.01580833 0.00245453 6.81660461 0.01345825 C8.67531693 0.01302017 8.67531693 0.01302017 10.57157898 0.01257324 C13.97014832 0.01372877 17.36847541 0.02376691 20.76700187 0.03772116 C24.31842573 0.05021419 27.86985272 0.05139789 31.42129517 0.05377197 C38.14671863 0.05999095 44.87207716 0.07640739 51.59747201 0.09647095 C59.25397685 0.11881699 66.91048477 0.12982012 74.5670141 0.13986182 C90.31732213 0.16077327 106.06756535 0.19595733 121.81782532 0.24050903 C121.81782532 0.90050903 121.81782532 1.56050903 121.81782532 2.24050903 C122.47782532 2.24050903 123.13782532 2.24050903 123.81782532 2.24050903 C123.81782532 5.87050903 123.81782532 9.50050903 123.81782532 13.24050903 C80.25782532 13.24050903 36.69782532 13.24050903 -8.18217468 13.24050903 C-8.18217468 9.61050903 -8.18217468 5.98050903 -8.18217468 2.24050903 C-4.86203756 0.02708429 -3.86227524 -0.00762542 0 0 Z " transform="translate(68.18217468261719,64.75949096679688)" style="fill: #F9F9F9;"/><path d="M0 0 C0.65880661 0.00424484 1.31761322 0.00848969 1.99638367 0.01286316 C4.0852576 0.02955679 6.17314014 0.06718817 8.26171875 0.10546875 C9.68423078 0.12052778 11.10675805 0.13421406 12.52929688 0.14648438 C16.00292226 0.17942872 19.47597362 0.23114467 22.94921875 0.29296875 C22.94921875 0.95296875 22.94921875 1.61296875 22.94921875 2.29296875 C23.60921875 2.29296875 24.26921875 2.29296875 24.94921875 2.29296875 C25.94921875 4.29296875 25.94921875 4.29296875 25.94921875 13.29296875 C13.40921875 13.29296875 0.86921875 13.29296875 -12.05078125 13.29296875 C-12.05078125 3.29296875 -12.05078125 3.29296875 -9.99145508 1.1862793 C-6.51126541 0.12907598 -3.64025613 -0.04647135 0 0 Z " transform="translate(119.05078125,47.70703125)" style="fill: #F9F9F9;"/><path d="M0 0 C1.98 0.495 1.98 0.495 4 1 C4 30.7 4 60.4 4 91 C2.02 91.495 2.02 91.495 0 92 C-1.83118084 90.16881916 -1.12645259 87.61232955 -1.13552856 85.1751709 C-1.13350433 84.33877075 -1.1314801 83.50237061 -1.12939453 82.640625 C-1.13114685 81.76426392 -1.13289917 80.88790283 -1.13470459 79.98498535 C-1.13912432 77.07330373 -1.13618469 74.1616823 -1.1328125 71.25 C-1.1334855 69.23600248 -1.1344555 67.22200505 -1.13571167 65.20800781 C-1.13718881 60.98111195 -1.13503358 56.75423717 -1.13037109 52.52734375 C-1.1246738 47.09619468 -1.12795272 41.66509501 -1.13394356 36.23394775 C-1.13754874 32.07340113 -1.13641078 27.91286631 -1.13381577 23.75231934 C-1.13314638 21.74914545 -1.13397533 19.74597051 -1.13629532 17.74279785 C-1.13882115 14.94829448 -1.13498224 12.15387229 -1.12939453 9.359375 C-1.13141876 8.52297485 -1.13344299 7.68657471 -1.13552856 6.8248291 C-1.11426242 1.11426242 -1.11426242 1.11426242 0 0 Z " transform="translate(125,97)" style="fill: #2A2A2A;"/><path d="M0 0 C0.99 0.33 1.98 0.66 3 1 C2.60782401 21.63865978 2.10578463 42.26064048 1 62.875 C0.95820618 63.66424866 0.91641235 64.45349731 0.87335205 65.2666626 C0.41328092 73.86043134 -0.1285562 82.43621056 -1 91 C-2.32 91 -3.64 91 -5 91 C-5.30599643 76.51616888 -4.65120701 62.15175993 -3.78173828 47.70141602 C-3.13732103 36.93186034 -2.65890697 26.17439909 -2.42993164 15.38623047 C-2.27549693 9.8992044 -1.81625696 5.1924443 0 0 Z " transform="translate(155,97)" style="fill: #141414;"/><path d="M0 0 C0.99 0.33 1.98 0.66 3 1 C7.31494523 65.8743694 7.31494523 65.8743694 7 91 C5.68 91 4.36 91 3 91 C1.92142817 74.17302353 0.90220947 57.35759416 0.32666016 40.50439453 C0.14518021 35.32030887 -0.09965988 30.16838133 -0.5625 25 C-1.01968125 19.74604407 -1.10804124 14.52057644 -1.125 9.25 C-1.12959229 8.44949219 -1.13418457 7.64898437 -1.13891602 6.82421875 C-1.12342473 1.12342473 -1.12342473 1.12342473 0 0 Z " transform="translate(95,97)" style="fill: #101010;"/></svg>